<?xml version="1.0" standalone="no"?>
<!DOCTYPE svg PUBLIC "-//W3C//DTD SVG 1.1//EN" "http://www.w3.org/Graphics/SVG/1.1/DTD/svg11.dtd" >
<svg xmlns="http://www.w3.org/2000/svg" xmlns:xlink="http://www.w3.org/1999/xlink" version="1.1">
<metadata></metadata>
<defs>
<font id="adequateextra_light" horiz-adv-x="791" >
<font-face units-per-em="1000" ascent="800" descent="-200" />
<missing-glyph horiz-adv-x="360" />
<glyph horiz-adv-x="0" />
<glyph unicode="&#xd;" horiz-adv-x="247" />
<glyph horiz-adv-x="1000" />
<glyph horiz-adv-x="1000" />
<glyph unicode="&#x9;" horiz-adv-x="247" />
<glyph unicode="&#xa;" horiz-adv-x="1103" />
<glyph horiz-adv-x="1103" />
<glyph horiz-adv-x="901" />
<glyph horiz-adv-x="695" />
<glyph horiz-adv-x="949" />
<glyph horiz-adv-x="803" />
<glyph horiz-adv-x="1000" />
<glyph horiz-adv-x="753" />
<glyph unicode=" "  horiz-adv-x="360" />
<glyph unicode="&#x09;" horiz-adv-x="360" />
<glyph unicode="&#xa0;" horiz-adv-x="360" />
<glyph unicode="!" horiz-adv-x="246" d="M133 256l-32 -32v577h32v-545zM166 33q0 -18 -13 -30.5t-30 -12.5q-18 0 -30.5 12.5t-12.5 30.5q0 17 12.5 29.5t30.5 12.5q17 0 30 -12.5t13 -29.5z" />
<glyph unicode="&#x22;" horiz-adv-x="251" d="M191 605l-42 -38v233h42v-195zM94 605l-42 -38v233h42v-195z" />
<glyph unicode="#" horiz-adv-x="625" d="M589 552l-6 -25h-112l-38 -235h112l-4 -26h-112l-42 -266h-32l42 266h-229l-43 -266h-33l43 266h-99l4 26h98l39 235h-99l6 25h99l38 248h32l-38 -248h230l38 248h32l-38 -248h112zM439 527h-229l-39 -235h230z" />
<glyph unicode="$" horiz-adv-x="775" d="M715 185q0 -54 -29.5 -91.5t-75.5 -61.5t-101.5 -35t-107.5 -12v-88h-30v88q-37 1 -77.5 6.5t-81 16t-79.5 26.5t-73 39l24 24q31 -21 67.5 -36t74.5 -25.5t75.5 -16t69.5 -6.5v377l-83 22q-49 13 -90.5 30.5t-71.5 41.5t-47 56.5t-17 76.5q0 54 28.5 91t73 60.5 t99.5 34.5t108 12v91h30v-91q75 -2 146.5 -24t134.5 -68l-22 -22q-28 21 -60.5 36.5t-66.5 26t-68 16t-64 7.5v-373l83 -22q48 -13 90 -30.5t73.5 -42.5t49.5 -58t18 -76zM371 422v365q-30 -1 -64.5 -5.5t-69 -15t-65 -28t-51.5 -43.5q-12 -14 -19.5 -36t-7.5 -44 q0 -39 18.5 -67t46 -47.5t59.5 -32.5t58 -21q18 -5 35 -9t31 -8zM684 183q0 39 -17.5 67t-43 47.5t-54 32t-50.5 19.5q-17 6 -32 10t-29 8l-57 15v-369q34 1 70.5 6t70.5 15.5t63.5 27.5t50.5 42q11 14 19.5 35t8.5 44z" />
<glyph unicode="%" horiz-adv-x="871" d="M420 619q0 -39 -15 -74.5t-40.5 -62t-60 -42t-74.5 -15.5t-74.5 15.5t-60 42t-40.5 62t-15 74.5q0 40 15 75t40.5 61t60 41.5t74.5 15.5t74.5 -15.5t60 -41.5t40.5 -61t15 -75zM583 799l-267 -816l-24 25l267 816zM831 185q0 -39 -15 -74.5t-40.5 -62t-60 -42 t-74.5 -15.5t-74.5 15.5t-60 42t-40.5 62t-15 74.5q0 40 15 75.5t40.5 62.5t60 42.5t74.5 15.5t74.5 -15.5t60 -42.5t40.5 -62.5t15 -75.5zM390 619q0 34 -13 65.5t-35 55t-51 37.5t-61 14t-60.5 -14t-51 -37.5t-35.5 -55t-13 -65.5q0 -35 13 -66t35.5 -54.5t51 -37.5 t60.5 -14q31 0 60 14t51.5 37.5t35.5 54.5t13 66zM801 185q0 34 -13 66t-35 56t-51 38.5t-61 14.5t-60.5 -14.5t-51 -38.5t-35.5 -56t-13 -66q0 -35 13 -66.5t35 -55t51 -37.5t61 -14q31 0 60 14t51.5 37.5t35.5 55t13 66.5z" />
<glyph unicode="&#x26;" horiz-adv-x="821" d="M821 1l-35 -2l-99 100q-41 -33 -81 -55t-79.5 -35t-79.5 -18.5t-82 -5.5q-81 0 -137.5 15.5t-98.5 49.5q-36 30 -52.5 63.5t-16.5 66.5q0 34 12 63.5t31 54t42 44t46 34.5q19 12 52.5 34t81.5 48q-22 23 -35.5 36t-22.5 23l-25 26q-20 25 -31.5 51.5t-11.5 64.5 q0 34 14 62.5t38.5 49.5t58 32.5t71.5 11.5q39 0 71 -12.5t55 -33t35.5 -47.5t12.5 -56q0 -19 -5.5 -42t-24.5 -50t-55.5 -58t-98.5 -66l315 -314q23 23 37 39.5t25 33.5l18 -18q-10 -16 -22 -31.5t-36 -41.5zM525 666q0 28 -12 50t-31.5 38t-45.5 24.5t-53 8.5 q-30 0 -58 -9.5t-49 -26t-34 -40.5t-13 -52q0 -18 3.5 -34.5t13 -34t26 -38t43.5 -46.5l39 -37q91 51 131 97t40 100zM665 120l-320 318q-69 -37 -116 -68.5t-76.5 -61.5t-42 -60.5t-12.5 -66.5q0 -22 8 -41t20 -35.5t27 -29.5t29 -22q30 -20 76.5 -30t101.5 -10 q78 0 152.5 23.5t152.5 83.5z" />
<glyph unicode="'" horiz-adv-x="142" d="M92 605l-42 -38v233h42v-195z" />
<glyph unicode="(" horiz-adv-x="230" d="M230 967q-60 -112 -85 -197q-30 -97 -44.5 -186t-14.5 -174q0 -209 55 -386q29 -95 84 -200h-26q-29 48 -51 101t-46 116q-36 91 -49 184t-13 172q0 57 8.5 125.5t28 142.5t51.5 151t79 151h23z" />
<glyph unicode=")" horiz-adv-x="230" d="M190 397q0 -36 -3 -79.5t-10 -89.5t-19 -94t-30 -93q-25 -63 -46.5 -116t-50.5 -101h-26q55 105 84 200q55 177 55 386q0 85 -15 174t-44 186q-13 43 -34.5 92t-50.5 106h23q47 -74 79 -151t51.5 -151.5t28 -143t8.5 -125.5z" />
<glyph unicode="*" horiz-adv-x="483" d="M427 675l-174 -49l112 -138l-24 -17l-99 147l-100 -147l-24 17l112 138l-174 49l9 27l170 -63l-9 178h32l-9 -178l169 63z" />
<glyph unicode="+" horiz-adv-x="636" d="M596 348h-262v-229h-32v229h-262v29h262v230h32v-230h262v-29z" />
<glyph unicode="," horiz-adv-x="199" d="M144 40q0 -10 -4 -18t-10 -15l-77 -92l-23 18l52 62q-14 4 -23.5 17t-9.5 28q0 20 13.5 33.5t33.5 13.5t34 -13.5t14 -33.5z" />
<glyph unicode="-" horiz-adv-x="360" d="M350 305h-340v28h340v-28z" />
<glyph unicode="." horiz-adv-x="194" d="M139 40q0 -20 -13.5 -34t-33.5 -14t-33.5 14t-13.5 34t13.5 33.5t33.5 13.5t33.5 -13.5t13.5 -33.5z" />
<glyph unicode="/" horiz-adv-x="437" d="M423 920l-383 -1070l-26 22l383 1070z" />
<glyph unicode="0" horiz-adv-x="866" d="M806 401q0 -87 -29.5 -163t-80.5 -132.5t-119 -88.5t-144 -32q-77 0 -144.5 32t-118.5 88.5t-80.5 132.5t-29.5 163t29.5 162.5t80.5 131.5t118.5 88t144.5 32q76 0 144 -32t119 -88t80.5 -131.5t29.5 -162.5zM775 401q0 76 -26.5 146t-73 123t-109 85t-133.5 32 t-133 -31.5t-108.5 -85t-73.5 -123.5t-27 -146q0 -77 27 -147t73.5 -123.5t108.5 -85.5t133 -32q70 0 132.5 32t109 85.5t73.5 123.5t27 147z" />
<glyph unicode="1" horiz-adv-x="341" d="M221 0h-33v756l-146 -144l-22 23l166 165h35v-800z" />
<glyph unicode="2" horiz-adv-x="780" d="M720 1h-660v27l467 345q35 26 63 49.5t47.5 48.5t30 54t10.5 66q0 50 -31 87t-76 61t-96.5 36t-91.5 12q-31 0 -66.5 -5t-71.5 -14.5t-70.5 -23.5t-62.5 -33l-24 23q124 81 294 81q60 0 118.5 -15t105 -43.5t75.5 -70t29 -95.5q0 -42 -12.5 -75.5t-38 -64.5t-65.5 -63.5 t-95 -72.5l-392 -286h613v-28z" />
<glyph unicode="3" horiz-adv-x="781" d="M721 190q0 -54 -31 -92.5t-80.5 -63.5t-110 -37t-119.5 -12q-84 0 -169 20t-151 57l23 23q33 -20 70.5 -33.5t77.5 -22t80.5 -12.5t78.5 -4q34 0 85 9.5t98.5 31t81.5 57t34 88.5q0 37 -17 66t-44.5 50t-62 35t-69 22.5t-65.5 12t-52 3.5h-23v33h23q20 0 50 3.5t63 12 t66 22.5t59 34.5t42.5 48.5t16.5 65q0 51 -31.5 85.5t-77 55.5t-96 30t-89.5 9q-69 0 -141.5 -18.5t-130.5 -55.5l-22 21q66 42 139.5 61.5t148.5 19.5q64 0 124 -14t106.5 -40.5t74 -63.5t27.5 -83q0 -35 -11.5 -66.5t-39.5 -58.5t-73.5 -49t-112.5 -37q69 -11 117 -32.5 t77.5 -50t42.5 -62.5t13 -68z" />
<glyph unicode="4" horiz-adv-x="781" d="M751 216h-136v-215h-33v215h-530l-32 30l561 554h34v-556h136v-28zM582 244v515l-515 -515h515z" />
<glyph unicode="5" horiz-adv-x="781" d="M721 219q0 -44 -26.5 -86t-72.5 -75t-108.5 -53t-133.5 -20q-84 0 -169 20t-151 57l23 24q66 -38 143.5 -55.5t152.5 -17.5q48 0 102.5 14t100.5 41t76.5 66.5t30.5 90.5q0 52 -30.5 92.5t-76.5 67.5t-100.5 41t-102.5 14q-29 0 -62.5 -5.5t-67.5 -15t-64.5 -22.5 t-53.5 -28l-30 29l46 402h496v-28h-467l-39 -364q64 33 123 46.5t119 13.5q64 0 125.5 -17.5t109.5 -50t77.5 -78.5t29.5 -103z" />
<glyph unicode="6" horiz-adv-x="801" d="M741 228q0 -47 -25.5 -90.5t-70.5 -77.5t-107.5 -54.5t-136.5 -20.5t-136.5 20.5t-108 54.5t-71 77.5t-25.5 90.5q0 32 11.5 62t31.5 57l340 453h38l-274 -366q36 13 64 20.5t51.5 12t42.5 6t36 1.5q73 0 135.5 -21t108 -55.5t71 -79t25.5 -90.5zM709 232q0 49 -27 88.5 t-71 67.5t-99.5 43t-112.5 15t-112 -15t-98.5 -43t-70 -67.5t-26.5 -88.5t26.5 -89t69.5 -69t98.5 -45t112.5 -16t113 16t99.5 45t70.5 69t27 89z" />
<glyph unicode="7" horiz-adv-x="654" d="M644 800l-438 -800h-37l425 772h-574v28h624z" />
<glyph unicode="8" horiz-adv-x="798" d="M738 190q0 -56 -32 -94.5t-81.5 -63.5t-109.5 -36t-117 -11q-56 0 -116 11.5t-109.5 36t-81 63.5t-31.5 94q0 70 69 128t223 95q-78 19 -130 40t-83 46t-44 54t-13 64q0 52 29.5 89t75.5 61t102 35.5t110 11.5q53 0 109.5 -11t103 -35t76 -61.5t29.5 -89.5 q0 -35 -13.5 -64.5t-45.5 -54.5t-84.5 -46t-129.5 -39q155 -38 224.5 -95.5t69.5 -127.5zM685 613q0 33 -15.5 59t-40 45.5t-56 32.5t-63.5 21t-62 11.5t-51 3.5q-20 0 -48.5 -3t-60 -10t-62.5 -19.5t-56 -32t-40.5 -47t-15.5 -63.5q0 -28 11.5 -49t29 -36.5t38.5 -27 t41 -20.5q20 -8 39.5 -15t44.5 -15l81 -23l82 24q23 8 43.5 14.5t40.5 15.5q19 9 40.5 20t39 27t29 37t11.5 50zM706 189q0 30 -11.5 53t-30 41t-41 32t-43.5 25q-22 11 -44.5 19.5t-47.5 15.5q-23 7 -44.5 13.5t-44.5 12.5q-23 -6 -44.5 -12.5t-44.5 -13.5 q-25 -7 -47.5 -15.5t-44.5 -19.5q-21 -11 -43.5 -25t-41 -32t-30 -41t-11.5 -53q0 -35 16.5 -61t42.5 -46t59.5 -33t67.5 -21t65 -11.5t54 -3.5t54.5 3t66 11t68 21t60.5 32.5t43.5 46.5t16.5 62z" />
<glyph unicode="9" horiz-adv-x="801" d="M741 571q0 -63 -43 -119l-340 -453h-38l276 370q-65 -25 -109.5 -34.5t-85.5 -9.5q-74 0 -136.5 21t-108 55.5t-71 78.5t-25.5 91t25.5 91t71 77.5t108 54t136.5 20.5t136.5 -20.5t107.5 -54t70.5 -77.5t25.5 -91zM709 568q0 49 -26.5 89t-70 68.5t-99 44.5t-112.5 16 t-112.5 -16t-99 -44.5t-70.5 -68.5t-27 -89q0 -50 27 -89.5t70.5 -67t99 -42.5t112.5 -15t112 15t98.5 42.5t70.5 67t27 89.5z" />
<glyph unicode=":" horiz-adv-x="194" d="M139 40q0 -20 -13.5 -34t-33.5 -14t-33.5 14t-13.5 34t13.5 33.5t33.5 13.5t33.5 -13.5t13.5 -33.5zM139 540q0 -20 -13.5 -34t-33.5 -14t-33.5 14t-13.5 34t13.5 33.5t33.5 13.5t33.5 -13.5t13.5 -33.5z" />
<glyph unicode=";" horiz-adv-x="199" d="M142 540q0 -20 -13.5 -34t-33.5 -14t-33.5 14t-13.5 34t13.5 33.5t33.5 13.5t33.5 -13.5t13.5 -33.5zM144 40q0 -10 -4 -18t-10 -15l-77 -92l-23 18l52 62q-14 4 -23.5 17t-9.5 28q0 20 13.5 33.5t33.5 13.5t34 -13.5t14 -33.5z" />
<glyph unicode="&#x3c;" horiz-adv-x="700" d="M655 106l-610 288v28l610 288v-32l-573 -271l573 -270v-31z" />
<glyph unicode="=" horiz-adv-x="635" d="M595 495h-555v26h555v-26zM595 235h-555v26h555v-26z" />
<glyph unicode="&#x3e;" horiz-adv-x="700" d="M655 394l-610 -288v31l573 270l-573 271v32l610 -288v-28z" />
<glyph unicode="?" horiz-adv-x="734" d="M674 613q0 -51 -25.5 -84t-70.5 -56q-22 -12 -44.5 -20.5t-48.5 -16.5t-52 -15t-49 -15q-21 -6 -48 -16.5t-51 -28.5t-40 -44t-16 -62v-32h-33v36q0 39 15.5 67.5t42.5 50t63 37t77 27.5l66 18q19 5 43 14t42 17t35.5 19t31 26t22 34.5t8.5 45.5q0 23 -9.5 44.5 t-24.5 38.5q-24 25 -57.5 42t-69.5 27.5t-73 15t-69 4.5q-70 0 -138 -19t-125 -54l-26 26q66 42 140 58.5t158 16.5q54 0 111.5 -12.5t105 -37.5t78.5 -63t31 -89zM253 33q0 -18 -12.5 -30.5t-29.5 -12.5q-18 0 -30.5 12.5t-12.5 30.5q0 17 12.5 29.5t30.5 12.5 q17 0 29.5 -12.5t12.5 -29.5z" />
<glyph unicode="@" horiz-adv-x="970" d="M910 458q0 -45 -12.5 -91.5t-37 -84.5t-62.5 -62.5t-89 -24.5q-48 0 -78 17t-44 62q-28 -42 -62.5 -62t-83.5 -20q-39 0 -69.5 18.5t-51 47t-31.5 63.5t-11 68q0 42 14 85.5t40 79t63.5 58t84.5 22.5q48 0 84.5 -29.5t53.5 -74.5l18 86h33l-43 -220q-11 -49 -11 -95 q0 -19 8 -34t20.5 -25.5t28 -16.5t30.5 -6q46 0 80 22t56 56.5t33 76t11 81.5q0 79 -30.5 147.5t-82.5 119.5t-121.5 80t-147.5 29q-85 0 -160 -31t-131.5 -85.5t-89 -128.5t-32.5 -159q0 -89 31.5 -165t87.5 -132t132 -88t165 -32q51 0 97.5 14.5t91.5 40.5l23 -22 q-46 -27 -99 -42.5t-107 -15.5q-96 0 -178 33.5t-142.5 93t-94.5 141t-34 177.5q0 89 36 166.5t96 135.5t139.5 91t166.5 33q83 0 158 -30.5t131.5 -84t89.5 -126.5t33 -157zM606 438q0 30 -7 60t-22.5 54t-40.5 39t-60 15q-39 0 -69.5 -20.5t-52 -51.5t-32.5 -68.5 t-11 -71.5q0 -32 8 -63t25 -56t43 -40.5t62 -15.5q40 0 69.5 21.5t49 54t29 71t9.5 72.5z" />
<glyph unicode="A" d="M776 0h-33l-111 242h-472l-111 -242h-34l365 800h30zM619 270l-224 489l-222 -489h446z" />
<glyph unicode="B" horiz-adv-x="772" d="M722 212q0 -44 -17 -82.5t-46.5 -67.5t-69 -45.5t-84.5 -16.5h-425v800h381q42 0 79.5 -15.5t65.5 -42.5t44.5 -63.5t16.5 -78.5q0 -21 -6 -46.5t-20.5 -50.5t-37.5 -47.5t-56 -37.5q46 -11 79.5 -33.5t54.5 -51t31 -60.5t10 -61zM635 598q0 36 -14 67.5t-38 55.5 t-56.5 37.5t-68.5 13.5h-347v-350h347q37 0 69 14t56 38t38 56t14 68zM690 212q0 38 -14.5 71.5t-41 58.5t-62.5 39.5t-79 14.5h-382v-368h393q38 0 72 14.5t59.5 40t40 58.5t14.5 71z" />
<glyph unicode="C" horiz-adv-x="802" d="M762 702l-22 -22q-51 48 -118 77.5t-142 29.5q-81 0 -151.5 -31t-123 -84t-82.5 -123t-30 -148t30 -148t82.5 -123.5t123 -84.5t151.5 -31q73 0 140.5 28t118.5 79l23 -22q-57 -54 -130 -84t-152 -30q-87 0 -163.5 33t-133.5 89.5t-90 132t-33 161.5q0 85 33 160.5 t90 132t133.5 89t163.5 32.5q85 0 155 -29.5t127 -83.5z" />
<glyph unicode="D" horiz-adv-x="831" d="M771 401q0 -83 -32 -156t-87 -127.5t-129 -86t-158 -31.5h-285v800h286q84 0 157.5 -31.5t128.5 -85.5t87 -127t32 -155zM738 401q0 74 -29 141.5t-78.5 118.5t-117 81t-143.5 30h-260v-744h260q77 0 144 30.5t117 81.5t78.5 118.5t28.5 142.5z" />
<glyph unicode="E" horiz-adv-x="722" d="M682 -1h-602v801h602v-28h-571v-353h510v-28h-510v-364h571v-28z" />
<glyph unicode="F" horiz-adv-x="687" d="M677 772h-566v-353h505v-28h-505v-391h-31v800h597v-28z" />
<glyph unicode="G" horiz-adv-x="898" d="M817 1h-31v125q-72 -78 -151.5 -109.5t-157.5 -31.5q-86 0 -162 33t-132.5 89.5t-89.5 132t-33 161.5q0 85 33 160.5t89.5 132t132.5 89t162 32.5q78 0 151.5 -30t131.5 -84l-22 -22q-52 51 -120.5 79.5t-140.5 28.5q-80 0 -150 -31t-122 -84t-82 -123t-30 -148 t30 -148.5t82 -123.5t122 -84.5t150 -31.5q91 0 172.5 44t136.5 120v198h-254v28h285v-402z" />
<glyph unicode="H" horiz-adv-x="792" d="M712 0h-31v379h-570v-379h-31v800h31v-393h570v393h31v-800z" />
<glyph unicode="I" horiz-adv-x="285" d="M205 0h-124v28h47v744h-48v28h125v-28h-46v-744h46v-28z" />
<glyph unicode="J" horiz-adv-x="593" d="M513 799v-509q0 -64 -23.5 -119.5t-65 -97t-98 -65t-121.5 -23.5q-58 0 -110 21.5t-95 59.5l24 24q35 -34 81 -55.5t100 -21.5q58 0 108.5 22.5t88 61t59 89.5t21.5 108v477h-47v28h78z" />
<glyph unicode="K" horiz-adv-x="674" d="M674 0h-38l-413 404l-112 -111v-293h-31v800h31v-472l481 472h36l-386 -378z" />
<glyph unicode="L" horiz-adv-x="672" d="M672 0h-592v800h31v-772h561v-28z" />
<glyph unicode="M" horiz-adv-x="990" d="M910 0h-30v754l-385 -515l-385 517v-756h-30v800h31l384 -515l384 515h31v-800z" />
<glyph unicode="N" horiz-adv-x="834" d="M754 -1h-35l-606 758l1 -758h-34v801h35l605 -755v755h34v-801z" />
<glyph unicode="O" horiz-adv-x="949" d="M889 401q0 -86 -32.5 -161.5t-89 -132t-132 -89.5t-160.5 -33q-86 0 -161.5 33t-132 89.5t-89 132t-32.5 161.5q0 85 32.5 160.5t89 132t132 89t161.5 32.5q85 0 160.5 -32.5t132 -89t89 -132t32.5 -160.5zM857 401q0 78 -30 148t-82 123t-121.5 84t-148.5 31 q-80 0 -149.5 -31t-121.5 -84t-82 -123t-30 -148t30 -148.5t82 -124t121.5 -84.5t149.5 -31q79 0 148.5 31t121.5 84.5t82 124t30 148.5z" />
<glyph unicode="P" horiz-adv-x="739" d="M709 562q0 -49 -19 -92.5t-52 -75.5t-77.5 -51t-94.5 -19h-355v-325h-31v801h386q50 0 94.5 -19t77.5 -51t52 -75.5t19 -92.5zM676 562q0 43 -16.5 81t-45.5 66.5t-68 45.5t-83 17h-352v-420h350q44 0 83 16.5t68.5 45t46.5 66.5t17 82z" />
<glyph unicode="Q" horiz-adv-x="949" d="M889 401q0 -75 -27 -144t-84 -141l97 -97l-19 -20l-98 97q-72 -57 -140 -84t-143 -27q-86 0 -161.5 33t-132 89.5t-89 132t-32.5 161.5q0 85 32.5 160.5t89 132t132 89t161.5 32.5q85 0 160.5 -32.5t132 -89t89 -132t32.5 -160.5zM857 401q0 78 -30 148t-82 123 t-121.5 84t-148.5 31q-80 0 -149.5 -31t-121.5 -84t-82 -123t-30 -148t30 -148.5t82 -124t121.5 -84.5t149.5 -31q67 0 130.5 23.5t132.5 80.5l-218 217l20 20l217 -217q54 72 77 135t23 129z" />
<glyph unicode="R" horiz-adv-x="752" d="M732 0h-41l-234 344h-347v-345h-30v801h392q46 0 89 -18.5t75.5 -49.5t52 -72t19.5 -87q0 -33 -13.5 -68t-39.5 -65.5t-66 -55t-92 -36.5zM676 573q0 40 -16.5 76.5t-45 63.5t-66 43t-78.5 16h-360v-399h340q47 0 88.5 16t72 43t48 63.5t17.5 77.5z" />
<glyph unicode="S" horiz-adv-x="789" d="M729 185q0 -56 -32 -94t-81 -61.5t-108 -34t-112 -10.5q-40 0 -83 5t-86 16.5t-85.5 29.5t-81.5 45l25 24q34 -23 74 -40.5t81 -29t81 -17t74 -5.5q36 0 75 4.5t76 15t68.5 28t53.5 43.5q12 14 20 35t8 44q0 39 -18 67t-43.5 47.5t-55 32t-51.5 19.5q-17 6 -32.5 10 t-29.5 8l-173 45q-50 13 -92.5 30.5t-73.5 41.5t-48 56.5t-17 76.5q0 55 30.5 93t78.5 61t106 33.5t113 10.5q81 0 162 -21t157 -79l-22 -22q-33 25 -71 43t-77 29t-77 16.5t-70 5.5q-29 0 -66.5 -4t-75 -14t-71.5 -28t-57 -46q-12 -14 -20 -36t-8 -44q0 -39 19 -67 t47.5 -48t61 -32.5t59.5 -20.5q18 -5 35 -9t31 -8l145 -38q49 -13 92 -30.5t75 -42.5t51 -58t19 -76z" />
<glyph unicode="T" horiz-adv-x="692" d="M682 772h-321v-772h-30v772h-321v28h672v-28z" />
<glyph unicode="U" horiz-adv-x="844" d="M764 800v-473q0 -71 -26.5 -133t-72.5 -108.5t-108 -73.5t-134 -27t-134.5 27t-109 73t-73 108t-26.5 133v474h30v-478q0 -64 24.5 -120t67.5 -98t99.5 -66.5t121.5 -24.5q64 0 120.5 24t99 66t67 98t24.5 119v480h30z" />
<glyph unicode="V" horiz-adv-x="777" d="M762 800l-358 -800h-29l-360 800h33l342 -762l339 762h33z" />
<glyph unicode="W" horiz-adv-x="1161" d="M1146 800l-281 -800h-25l-257 740l-263 -740h-25l-280 800h31l263 -746l261 746h23l259 -746l263 746h31z" />
<glyph unicode="X" horiz-adv-x="707" d="M702 0h-39l-307 384l-310 -384h-41l330 409l-315 391h38l296 -368l296 368h39l-315 -393z" />
<glyph unicode="Y" horiz-adv-x="720" d="M710 800l-335 -452v-348h-30v348l-335 452h37l313 -423l311 423h39z" />
<glyph unicode="Z" horiz-adv-x="658" d="M643 0h-616l544 772h-556v28h613l-541 -772h556v-28z" />
<glyph unicode="[" horiz-adv-x="279" d="M279 -176h-239v1143h239v-27h-200v-1088h200v-28z" />
<glyph unicode="\" horiz-adv-x="437" d="M423 -128l-26 -22l-383 1070l26 22z" />
<glyph unicode="]" horiz-adv-x="279" d="M239 -176h-239v28h200v1088h-200v27h239v-1143z" />
<glyph unicode="^" horiz-adv-x="614" d="M537 410h-35l-195 367l-194 -367h-36l209 395h42z" />
<glyph unicode="_" horiz-adv-x="662" d="M669 -160h-678v33h678v-33z" />
<glyph unicode="`" horiz-adv-x="625" d="M427 711h-31l-132 167h35z" />
<glyph unicode="a" d="M711 1h-29v177q-26 -53 -61.5 -90t-75.5 -60t-82 -33t-81 -10q-69 0 -129.5 26t-105.5 71t-71 105.5t-26 129.5t26 129.5t71 105.5t105.5 71t129.5 26q40 0 83 -11t83 -34t75 -59.5t59 -87.5v176h29v-632zM683 317q0 61 -23.5 117t-64.5 98t-96 67t-117 25t-117.5 -25 t-96.5 -67t-65 -98t-24 -117t24 -116.5t65 -98t96 -67.5t118 -25t117.5 25t95.5 67.5t64.5 98t23.5 116.5z" />
<glyph unicode="b" d="M741 312q0 -63 -25.5 -122t-70 -104.5t-105.5 -73t-131 -27.5q-36 0 -77 9t-81 31t-77 58.5t-65 91.5v-175h-29v855h29v-396q27 54 63 90.5t76.5 58.5t83 31t82.5 9q70 0 129.5 -27.5t103.5 -73.5t69 -107t25 -128zM711 312q0 63 -23 119t-63 99t-94 68t-117 25 q-62 0 -118 -23t-98 -64.5t-67 -99t-25 -126.5q0 -57 24 -111t65 -96t96.5 -67.5t117.5 -25.5q63 0 118 25.5t96 67.5t64.5 96.5t23.5 112.5z" />
<glyph unicode="c" horiz-adv-x="651" d="M621 89q-22 -25 -49.5 -44.5t-58 -32.5t-63 -20t-63.5 -7q-72 0 -133.5 26t-107 71t-71 105.5t-25.5 129.5t26 129.5t71 105.5t106.5 71t133.5 26q67 0 126 -26.5t108 -75.5l-21 -20q-42 45 -97.5 71t-115.5 26q-65 0 -121.5 -25t-97.5 -67t-64.5 -98t-23.5 -117 t23.5 -116.5t64.5 -98t97 -67.5t122 -25q28 0 58.5 7.5t59 20.5t53.5 31.5t42 40.5z" />
<glyph unicode="d" d="M711 -1h-29v177q-26 -51 -60 -87t-73.5 -59.5t-82 -34t-84.5 -10.5q-67 0 -127 25.5t-105.5 69.5t-72.5 103.5t-27 128.5q0 68 24.5 129t68.5 107t105 73t134 27q40 0 82 -10t81.5 -32t74.5 -58.5t62 -88.5v395h29v-855zM683 310q0 67 -23.5 124t-64.5 99t-96 66t-117 24 q-67 0 -122.5 -25.5t-95.5 -68t-62 -99t-22 -118.5t24 -116.5t65.5 -96t96 -65.5t116.5 -24t117 24.5t96 65.5t64.5 95.5t23.5 114.5z" />
<glyph unicode="e" horiz-adv-x="763" d="M713 318v-12h-634q4 -60 28.5 -114t65 -94.5t94 -64t115.5 -23.5q54 0 102 19t90 53l20 -20q-45 -37 -99.5 -57t-112.5 -20q-69 0 -129.5 26.5t-105.5 71.5t-71 105.5t-26 128.5q0 69 26 129.5t71 105.5t105.5 71t129.5 26t129 -26.5t105 -72t71 -105.5t26 -127zM684 330 q-4 60 -28.5 113.5t-65 93.5t-94 63.5t-114.5 23.5q-62 0 -115.5 -24t-94.5 -64.5t-65.5 -94t-27.5 -111.5h605z" />
<glyph unicode="f" horiz-adv-x="390" d="M390 804l-19 -19q-7 9 -18.5 18.5t-26 17.5t-30.5 13t-32 5q-30 0 -55.5 -11.5t-44.5 -30.5t-30 -45t-11 -54v-64h228v-25h-228v-609h-30v609h-73v25h73v64q0 34 13 64.5t36 53t54 35.5t67 13q40 0 73 -18.5t54 -41.5z" />
<glyph unicode="g" horiz-adv-x="745" d="M665 67q0 -63 -22.5 -117t-62.5 -93t-96 -61t-122 -22q-58 0 -105.5 16.5t-86.5 47.5l22 22q32 -26 75.5 -43.5t94.5 -17.5q57 0 107 20.5t87 56.5t58.5 85t21.5 106l-1 163q-22 -50 -55.5 -83.5t-71 -53.5t-75.5 -28.5t-69 -8.5q-63 0 -118.5 24t-96.5 64.5t-65 94.5 t-24 115t24 115t65 94t96.5 63t118.5 23q31 0 68.5 -8.5t74.5 -27t70.5 -49.5t57.5 -76v145h30v-566zM640 354q0 57 -22 106t-59.5 85.5t-87.5 57t-107 20.5t-107 -20.5t-87.5 -57t-59 -85.5t-21.5 -106t21.5 -106.5t59 -86.5t87.5 -58t107 -21t107 21t87.5 58t59.5 86.5 t22 106.5z" />
<glyph unicode="h" horiz-adv-x="733" d="M658 371v-371h-30v367q0 55 -20 101.5t-54.5 81t-81.5 54t-101 19.5q-51 0 -98 -19.5t-83 -53.5t-57.5 -80.5t-21.5 -101.5l-1 -368h-30v855h30v-356q62 82 125 115.5t137 33.5q63 0 116 -21.5t90.5 -59t58.5 -88t21 -108.5z" />
<glyph unicode="i" horiz-adv-x="216" d="M131 825q0 -16 -11 -27t-27 -11t-27 11t-11 27q0 17 11 28t27 11t27 -11t11 -28zM126 0h-31v607h-46v26h77v-633z" />
<glyph unicode="j" horiz-adv-x="301" d="M212 825q0 -16 -11.5 -27t-27.5 -11t-27 11t-11 27q0 17 11 28t27 11t27.5 -11t11.5 -28zM207 635v-693q0 -36 -13.5 -68.5t-37.5 -57t-56.5 -39t-71.5 -14.5t-72.5 17t-57.5 43l20 20q17 -20 46 -37t64 -17q33 0 60.5 12.5t47 33.5t30.5 47.5t11 55.5v672h-46v25h76z " />
<glyph unicode="k" horiz-adv-x="578" d="M593 0h-32l-339 322l-112 -108v-214h-30v855h30v-610l403 389h33l-307 -296z" />
<glyph unicode="l" horiz-adv-x="382" d="M402 42q-27 -27 -57.5 -43t-80.5 -16q-36 0 -67.5 13.5t-54.5 36t-36.5 53t-13.5 63.5v681h-57v25h87v-704q0 -26 10 -51t28.5 -45t44.5 -32t59 -12q42 0 70.5 15t46.5 36z" />
<glyph unicode="m" horiz-adv-x="1193" d="M1118 367v-367h-30v361q0 57 -19.5 105t-52 83.5t-75.5 55t-91 19.5t-90.5 -19.5t-75 -54t-51.5 -81.5t-19 -102v-367h-29v361q0 57 -19 105t-52 83.5t-76 55t-91 19.5q-49 0 -92 -19.5t-75 -53.5t-50.5 -81t-18.5 -102l-1 -368h-30v633h30v-144q18 43 44 73.5t57 49.5 t66 28t70 9q36 0 72.5 -10.5t70 -33.5t61.5 -58.5t48 -86.5q35 97 100 143t152 46q54 0 102.5 -21.5t85 -59t58 -89t21.5 -112.5z" />
<glyph unicode="n" horiz-adv-x="733" d="M658 364v-364h-30v361q0 61 -20.5 109.5t-55.5 82.5t-81.5 52.5t-98.5 18.5q-51 0 -98 -20.5t-83.5 -55t-58.5 -80t-22 -96.5v-372h-30v633h30v-137q20 36 48.5 64.5t63 48t73 30t78.5 10.5q61 0 113.5 -21t90.5 -59t59.5 -90t21.5 -115z" />
<glyph unicode="o" horiz-adv-x="763" d="M713 317q0 -69 -26 -129.5t-71 -105.5t-105 -71t-129 -26t-129.5 26t-105.5 71t-71 105.5t-26 129.5t26 129.5t71 105.5t105.5 71t129.5 26t129 -26t105 -71t71 -105.5t26 -129.5zM684 317q0 61 -24 117t-65 98t-96 67t-117 25t-117.5 -25t-96.5 -67t-65 -98t-24 -117 t24 -116.5t65 -98t96 -67.5t118 -25q62 0 117 25t96 67.5t65 98t24 116.5z" />
<glyph unicode="p" d="M741 321q0 -67 -26 -128t-71 -107t-105.5 -73.5t-129.5 -27.5q-39 0 -80.5 10t-81 32.5t-75.5 58.5t-63 89v-396h-29v854h29v-168q32 55 69.5 91t76.5 56.5t78.5 28.5t75.5 8q69 0 129.5 -26t105.5 -71t71 -104.5t26 -126.5zM712 317q0 60 -23.5 115.5t-64.5 98t-96 68 t-119 25.5t-119 -25.5t-95.5 -68t-64 -98t-23.5 -115.5t23.5 -115.5t64 -98t95.5 -68t119 -25.5t119 25.5t96 68t64.5 98t23.5 115.5z" />
<glyph unicode="q" d="M711 -221h-29v394q-30 -56 -67.5 -92t-77 -57.5t-79.5 -30t-76 -8.5q-69 0 -129.5 26.5t-105.5 72t-71 106.5t-26 131q0 67 26 126.5t71 104.5t105.5 71t129.5 26q38 0 79 -9.5t80.5 -32t76 -58.5t64.5 -88v172h29v-854zM683 320q0 60 -23.5 115t-64.5 97t-95.5 67 t-117.5 25t-118 -25t-96 -67.5t-64.5 -97.5t-23.5 -115t23 -116t63.5 -98.5t95.5 -68.5t120 -26q63 0 118 25t95.5 67.5t64 99t23.5 118.5z" />
<glyph unicode="r" horiz-adv-x="567" d="M577 565l-21 -22q-15 17 -37 32t-46.5 26t-51 17t-51.5 6q-38 0 -83 -16t-84 -46.5t-65.5 -76t-26.5 -105.5l-1 -380h-30v633h29v-140q22 41 53 70.5t66.5 48.5t72 28t69.5 9q66 0 117.5 -23.5t89.5 -60.5z" />
<glyph unicode="s" horiz-adv-x="678" d="M628 150q0 -48 -31 -80t-76 -51t-96.5 -26.5t-91.5 -7.5q-66 0 -138.5 17t-138.5 62l22 23q30 -21 63 -35.5t66.5 -24t66 -13.5t60.5 -4q24 0 57 3.5t67 12.5t65.5 24.5t52.5 39.5q9 11 16 26t7 32q0 32 -20 55.5t-49 40t-62 27t-59 16.5l-164 37q-37 9 -72 22t-62.5 32 t-44 45.5t-16.5 61.5q0 43 27.5 74t69.5 51t92 29.5t94 9.5q33 0 68.5 -4t70.5 -13t69.5 -24t64.5 -37l-23 -22q-27 19 -59.5 33.5t-65.5 23.5t-65.5 13.5t-60.5 4.5q-25 0 -57 -4.5t-64 -14.5t-61 -26t-48 -38q-8 -10 -15.5 -25t-7.5 -32q0 -22 9.5 -39.5t24.5 -31.5 t34 -24t39 -17l53 -17q14 -4 27 -7t26 -5l141 -33q36 -9 71 -22t62.5 -32t44.5 -45t17 -61z" />
<glyph unicode="t" horiz-adv-x="459" d="M459 52q-24 -26 -63.5 -46.5t-84.5 -20.5q-40 0 -77 15t-65.5 42t-45.5 63.5t-17 79.5v421h-71v22h71v119l29 29v-148h258v-22h-258v-417q0 -39 14.5 -71.5t38.5 -56.5t56 -37.5t67 -13.5q18 0 37.5 5t36.5 13.5t32 19.5t24 22z" />
<glyph unicode="u" horiz-adv-x="733" d="M653 1h-30l1 136q-21 -36 -50 -64t-63.5 -47.5t-72 -30t-74.5 -10.5q-63 0 -116 20t-91.5 57.5t-60 91t-21.5 119.5v361h30v-361q0 -61 22 -109.5t58 -82.5t82.5 -52.5t96.5 -18.5q49 0 96 19.5t83 53.5t58 79.5t22 98.5v373h30v-633z" />
<glyph unicode="v" horiz-adv-x="624" d="M614 634l-292 -634h-30l-282 634h33l265 -599l273 599h33z" />
<glyph unicode="w" horiz-adv-x="938" d="M928 634l-222 -634h-33l-204 594l-205 -594h-32l-222 634h33l205 -592l207 592h28l206 -592l205 592h34z" />
<glyph unicode="x" horiz-adv-x="582" d="M582 0h-39l-252 300l-252 -300h-39l271 324l-260 310h39l241 -287l241 287h39l-261 -310z" />
<glyph unicode="y" horiz-adv-x="638" d="M628 634l-413 -856h-35l120 248l-290 608h37l268 -574l277 574h36z" />
<glyph unicode="z" horiz-adv-x="564" d="M554 -1h-554l486 609h-460v25h519l-486 -608h495v-26z" />
<glyph unicode="{" horiz-adv-x="327" d="M327 947q-39 0 -69 -4.5t-50 -18t-30 -37.5t-10 -64v-264q0 -37 -6.5 -62t-18.5 -42.5t-28.5 -30.5t-35.5 -25q19 -11 35.5 -26t28.5 -35t18.5 -46.5t6.5 -60.5v-255q0 -19 2 -41t13 -39q10 -15 27 -24t36.5 -14t40.5 -6.5t40 -1.5v-24q-48 0 -84.5 5.5t-61.5 22 t-37.5 46t-12.5 78.5v250q0 49 -18 88t-73 63v39q55 22 73 56.5t18 82.5v266q0 40 9 68t30 45.5t54.5 25.5t81.5 8h21v-23z" />
<glyph unicode="|" horiz-adv-x="230" d="M130 -175h-30v1143h30v-1143z" />
<glyph unicode="}" horiz-adv-x="327" d="M287 379q-28 -12 -45.5 -28t-27.5 -35t-14 -41.5t-4 -46.5v-250q0 -49 -12.5 -78.5t-37.5 -46t-61.5 -22t-84.5 -5.5l1 24q19 0 39.5 1.5t40 6.5t36.5 14t28 24q11 17 13 39t2 41v255q0 69 25 107.5t63 60.5q-19 12 -35 24.5t-28 30.5t-18.5 43t-6.5 62v264q0 40 -10 64 t-30.5 37.5t-50.5 18t-69 4.5v23h22q48 0 81 -8t54 -25.5t30 -45.5t9 -68v-266q0 -48 18 -82.5t73 -56.5v-39z" />
<glyph unicode="~" horiz-adv-x="857" d="M703 854q-15 -24 -29.5 -43.5t-31 -32.5t-37 -20t-47.5 -7q-28 0 -64 16q-18 8 -37 17.5t-39 20.5q-42 21 -80.5 38.5t-73.5 17.5q-24 0 -43 -8t-34.5 -21t-28 -30.5t-24.5 -35.5l-13 15q15 27 30.5 48.5t34 35.5t42 21.5t54.5 7.5q36 0 74 -15t77 -34l38 -18t36 -16 q37 -17 70 -17q44 1 68 22.5t44 53.5z" />
<glyph horiz-adv-x="1103" />
<glyph unicode="&#xa1;" horiz-adv-x="246" d="M113 534l31 32v-576h-31v544zM80 758q0 18 12.5 30.5t30.5 12.5q17 0 30 -12.5t13 -30.5q0 -17 -13 -30t-30 -13q-18 0 -30.5 13t-12.5 30z" />
<glyph unicode="&#xa2;" horiz-adv-x="651" d="M621 89q-22 -25 -49.5 -44.5t-58 -32.5t-63 -20t-63.5 -7h-2v-89h-30v90q-66 6 -122 34t-96.5 72.5t-63.5 102t-23 122.5t23 122.5t64 102t96.5 72.5t121.5 34v91h30v-90h2q67 0 126 -26.5t108 -75.5l-21 -20q-42 45 -97.5 71t-115.5 26h-2v-614h2q28 0 58.5 7.5t59 20.5 t53.5 31.5t42 40.5zM355 12v610q-59 -6 -109.5 -33t-87.5 -68t-57.5 -93.5t-20.5 -110.5q0 -57 20.5 -110t57.5 -94t87 -68t110 -33z" />
<glyph unicode="&#xa3;" horiz-adv-x="800" d="M740 0h-710v30q47 26 76.5 53t43 65t10.5 92t-21 135h-96v28h89q-18 67 -28 111t-10 84q0 61 28.5 102.5t75 66.5t105 36t118.5 11q87 0 162.5 -22.5t147.5 -76.5l-22 -22q-63 48 -140 70.5t-149 22.5q-40 0 -91 -8.5t-96 -29.5t-76 -58t-31 -94q0 -39 11 -83.5 t26 -109.5h368v-28h-361q16 -72 20 -126t-6.5 -94.5t-36.5 -71t-69 -55.5h662v-28z" />
<glyph unicode="&#xa4;" horiz-adv-x="785" d="M745 702l-23 -22q-51 48 -118 77.5t-142 29.5q-67 0 -126.5 -21.5t-108 -59t-84 -88.5t-53.5 -111h430l-29 -28h-408q-8 -43 -8 -78q0 -42 7 -74h277l-29 -28h-241q17 -60 52 -112.5t84 -90.5t109 -60t128 -22q73 0 140.5 28t118.5 79l23 -22q-57 -54 -130 -84t-152 -30 q-73 0 -139.5 23.5t-120.5 65.5t-92 99.5t-55 125.5h-65l27 28h32q-7 32 -7 74q0 35 8 78h-60l27 28h39q18 66 56.5 122.5t91.5 98t119 64.5t139 23q85 0 155.5 -29.5t127.5 -83.5z" />
<glyph unicode="&#xa5;" horiz-adv-x="720" d="M710 800l-264 -359h183v-28h-204l-49 -65v-92h253v-28h-253v-228h-31v228h-255v28h255v92l-50 65h-205v28h185l-265 359h38l312 -423l313 423h37z" />
<glyph unicode="&#xa6;" horiz-adv-x="231" d="M131 449h-31v375h31v-375zM131 -176h-31v345h31v-345z" />
<glyph unicode="&#xa7;" horiz-adv-x="627" d="M584 286q0 -27 -7 -51.5t-22.5 -48t-41.5 -48t-64 -52.5q47 -34 62.5 -65.5t15.5 -70.5q0 -30 -14 -57.5t-41 -47.5t-66.5 -32t-90.5 -12q-60 0 -117.5 19t-108.5 64l24 25q45 -37 95.5 -58t105.5 -21q28 0 60 6t59 20t44.5 37.5t17.5 59.5q0 17 -11.5 42.5t-39.5 48.5 q-36 29 -87 57.5t-102 55.5l-76 44q-42 23 -60 38.5t-32 29.5q-15 16 -29 40.5t-14 61.5q0 27 7 50t23 45.5t42 46t64 50.5q-35 27 -45 58t-10 56q0 63 53 100.5t153 37.5q60 0 117.5 -21t106.5 -63l-25 -23q-88 79 -199 79q-79 0 -126 -29t-47 -81q0 -32 12 -53t36 -40 q11 -8 23.5 -15t23.5 -14l38 -22q28 -15 65.5 -34t75.5 -42q39 -22 70.5 -44t51.5 -45q14 -16 22 -39t8 -43zM552 280q0 48 -35.5 81t-92.5 63q-23 13 -51.5 28.5t-58 32l-59 33t-55.5 31.5q-25 -17 -47.5 -36t-39.5 -40.5t-27 -44.5t-10 -47q0 -33 13 -57.5t32 -42.5 q9 -9 19 -16.5t20 -14.5l39 -22l229 -128q57 42 90.5 85.5t33.5 94.5z" />
<glyph unicode="&#xa8;" horiz-adv-x="763" d="M509 746q0 -15 -10.5 -25.5t-25.5 -10.5t-26 10.5t-11 25.5t11 25.5t26 10.5t25.5 -10.5t10.5 -25.5zM354 746q0 -15 -10.5 -25.5t-25.5 -10.5t-26 10.5t-11 25.5t11 25.5t26 10.5t25.5 -10.5t10.5 -25.5z" />
<glyph unicode="&#xa9;" horiz-adv-x="949" d="M889 401q0 -86 -32.5 -161.5t-89 -132t-132 -89.5t-160.5 -33q-86 0 -161.5 33t-132 89.5t-89 132t-32.5 161.5q0 85 32.5 160.5t89 132t132 89t161.5 32.5q85 0 160.5 -32.5t132 -89t89 -132t32.5 -160.5zM865 401q0 80 -30.5 151.5t-83 125.5t-124 85.5t-152.5 31.5 q-82 0 -153 -31.5t-124 -85.5t-83.5 -125.5t-30.5 -151.5q0 -81 30.5 -153t83 -126t124 -85.5t153.5 -31.5t153 31.5t123.5 85.5t83 126t30.5 153zM662 210q-33 -34 -82 -55t-101 -21q-56 0 -104.5 21t-85 57t-57.5 84.5t-21 103.5t21 103.5t57.5 84.5t85 56.5t104.5 20.5 q55 0 101.5 -21t80.5 -53l-23 -22q-29 30 -70 49t-89 19t-90.5 -19.5t-74.5 -52t-50.5 -75.5t-18.5 -90t18.5 -90t50 -76t74.5 -52.5t91 -19.5q45 0 87.5 19t72.5 51z" />
<glyph unicode="&#xaa;" horiz-adv-x="392" d="M362 501h-23v71q-24 -42 -64.5 -62.5t-78.5 -20.5q-35 0 -65 13t-52.5 35t-35.5 51.5t-13 61.5q0 33 13 62t35.5 51.5t52.5 35.5t65 13q18 0 38 -5t39.5 -15t36.5 -26t29 -38v72h23v-299zM362 337h-312v23h312v-23zM339 650q0 28 -11 54t-30.5 45.5t-45.5 31t-56 11.5 t-56 -11.5t-45.5 -31t-31 -45.5t-11.5 -54t11 -53.5t30.5 -45t46 -31t56.5 -11.5t56 11.5t45.5 31t30.5 45t11 53.5z" />
<glyph unicode="&#xab;" horiz-adv-x="470" d="M430 128l-170 151v29l170 152v-41l-140 -127l140 -124v-40zM210 128l-170 151v29l170 152v-41l-140 -127l140 -124v-40z" />
<glyph unicode="&#xac;" horiz-adv-x="651" d="M611 0h-30v290h-541v28h571v-318z" />
<glyph unicode="&#xad;" horiz-adv-x="360" d="M350 305h-340v28h340v-28z" />
<glyph unicode="&#xae;" horiz-adv-x="949" d="M889 401q0 -86 -32.5 -161.5t-89 -132t-132 -89.5t-160.5 -33q-86 0 -161.5 33t-132 89.5t-89 132t-32.5 161.5q0 85 32.5 160.5t89 132t132 89t161.5 32.5q85 0 160.5 -32.5t132 -89t89 -132t32.5 -160.5zM865 401q0 80 -30.5 151.5t-83 125.5t-124 85.5t-152.5 31.5 q-82 0 -153 -31.5t-124 -85.5t-83.5 -125.5t-30.5 -151.5q0 -81 30.5 -153t83 -126t124 -85.5t153.5 -31.5t153 31.5t123.5 85.5t83 126t30.5 153zM693 164h-29l-140 204h-192v-205h-29v483h232q27 0 50.5 -11.5t41 -31t28 -44.5t10.5 -52q0 -19 -5.5 -40t-18.5 -40 t-34.5 -34t-53.5 -22zM637 507q0 23 -9 44t-24.5 36.5t-36 24.5t-43.5 9h-192v-228h191q26 0 47 9t36 24.5t23 36t8 44.5z" />
<glyph unicode="&#xaf;" horiz-adv-x="733" d="M559 710h-393v28h393v-28z" />
<glyph unicode="&#xb0;" horiz-adv-x="484" d="M445 614q0 -42 -16 -79t-43.5 -64.5t-64 -43.5t-78.5 -16t-79 16t-64.5 43.5t-43.5 64.5t-16 79t16 78.5t43.5 64t64.5 43.5t79 16t78.5 -16t64 -43.5t43.5 -64t16 -78.5zM415 614q0 36 -13.5 67t-37 54.5t-54.5 37t-67 13.5t-67.5 -13.5t-55 -37t-37 -54.5t-13.5 -67 t13.5 -67.5t37 -55t55 -37t67.5 -13.5t67 13.5t54.5 37t37 55t13.5 67.5z" />
<glyph unicode="&#xb1;" horiz-adv-x="636" d="M596 368h-261v-222h-34v222h-261v29h261v223h34v-223h261v-29zM596 1h-556v27h556v-27z" />
<glyph unicode="&#xb2;" horiz-adv-x="439" d="M399 434h-359v22l118 78q22 15 44 29.5t39.5 26t29 19t13.5 9.5q8 5 16.5 11t16.5 12q15 13 27.5 29.5t12.5 38.5q0 21 -14 37t-35 26.5t-45.5 15.5t-46.5 5q-35 0 -69.5 -9.5t-72.5 -29.5l-19 18q45 23 82 33.5t79 10.5q31 0 61.5 -7t54 -20.5t38 -32.5t14.5 -44 q0 -36 -25 -64t-77 -62l-199 -131h316v-21z" />
<glyph unicode="&#xb3;" horiz-adv-x="408" d="M368 534q0 -23 -14.5 -42t-38.5 -32t-54.5 -20t-61.5 -7q-35 0 -75.5 9.5t-83.5 31.5l18 17q38 -20 74.5 -28t71.5 -8q22 0 46 6t44 16.5t33.5 24.5t13.5 31q0 19 -15 34.5t-37 25.5t-46.5 15.5t-43.5 5.5h-17l-1 24h18q18 0 41.5 5t44.5 15t35 24.5t14 34.5 q0 16 -12 30.5t-31 25t-43 16.5t-48 6q-29 0 -61 -9.5t-68 -30.5l-18 18q42 24 77.5 33t67.5 9q33 0 62.5 -7.5t52 -21t35.5 -31t13 -38.5q0 -23 -23 -50t-80 -42q30 -7 51 -18t34 -23.5t19 -25.5t6 -24z" />
<glyph unicode="&#xb4;" d="M515 878l-132 -167h-32l129 167h35z" />
<glyph unicode="&#xb5;" horiz-adv-x="718" d="M638 -1h-30v139q-24 -49 -62.5 -81.5t-84.5 -49t-96.5 -16.5t-98 16t-88.5 49t-69 82v-360h-29v856h29v-371q0 -66 25.5 -112.5t63.5 -76.5t83 -43.5t83 -13.5q43 0 86.5 14.5t78.5 44.5t57.5 76.5t22.5 110.5v76v295h29v-635z" />
<glyph unicode="&#xb6;" horiz-adv-x="610" d="M550 770h-64v-946h-30l-1 946h-144v-946h-31v506q-65 0 -116.5 18.5t-88 50t-56 74t-19.5 91.5q0 48 19.5 91t53 75t78.5 50.5t96 18.5h303v-29z" />
<glyph unicode="&#xb7;" horiz-adv-x="218" d="M151 405q0 -20 -13.5 -34t-33.5 -14t-33.5 14t-13.5 34t13.5 33.5t33.5 13.5t33.5 -13.5t13.5 -33.5z" />
<glyph unicode="&#xb8;" horiz-adv-x="651" d="M492 -166q0 -22 -9 -41t-24.5 -33.5t-36 -22.5t-43.5 -8q-15 0 -33 5.5t-36 18.5l18 18q28 -18 51 -18q36 0 61 24t25 57q0 32 -25 55.5t-61 23.5q-11 0 -26.5 -5t-29.5 -15l-20 20l19 97h27l-16 -81q10 3 17.5 5t13.5 3q7 1 10.5 1h4.5q23 0 43.5 -8t36 -22t24.5 -33 t9 -41z" />
<glyph unicode="&#xb9;" horiz-adv-x="205" d="M163 436h-27v350l-81 -69l-15 16l97 81h26v-378z" />
<glyph unicode="&#xba;" horiz-adv-x="392" d="M362 650q0 -32 -13 -61.5t-35.5 -51.5t-53 -35t-64.5 -13q-35 0 -65 13t-52.5 35t-35.5 51.5t-13 61.5q0 33 13 62t35.5 51.5t52.5 35.5t65 13q34 0 64.5 -13t53 -35.5t35.5 -51.5t13 -62zM338 337h-288v23h288v-23zM339 650q0 28 -11 54t-30.5 45.5t-45.5 31t-56 11.5 t-56 -11.5t-45.5 -31t-31 -45.5t-11.5 -54t11 -53.5t30.5 -45t46 -31t56.5 -11.5t56 11.5t45.5 31t30.5 45t11 53.5z" />
<glyph unicode="&#xbb;" horiz-adv-x="470" d="M430 279l-170 -151v40l140 124l-140 127v41l170 -152v-29zM210 279l-170 -151v40l140 124l-140 127v41l170 -152v-29z" />
<glyph unicode="&#xbc;" horiz-adv-x="699" d="M163 437h-27v350l-81 -69l-15 16l97 80h26v-377zM415 802l-270 -815l-21 20l271 815zM659 96h-81v-95h-28v95h-244l-25 24l270 245h27v-247h81v-22zM550 121v214l-236 -214h236z" />
<glyph unicode="&#xbd;" horiz-adv-x="740" d="M163 437h-27v350l-81 -69l-15 16l97 80h26v-377zM700 -1h-359v22l118 78l126 84q16 10 33 24q15 12 27.5 28.5t12.5 38.5t-14 37.5t-35 26t-46 15.5t-47 5q-34 0 -68.5 -9t-72.5 -30l-20 18q45 23 82 33.5t79 10.5q31 0 61.5 -7t54 -20.5t38 -32.5t14.5 -44 q0 -36 -24.5 -64t-76.5 -62l-199 -130h316v-22zM415 802l-270 -815l-21 20l271 815z" />
<glyph unicode="&#xbe;" horiz-adv-x="855" d="M571 801l-270 -815l-22 20l272 815zM368 534q0 -23 -14.5 -42t-38.5 -32t-54.5 -20t-61.5 -7q-35 0 -75.5 9.5t-83.5 31.5l18 17q38 -20 74.5 -28t71.5 -8q22 0 46 6t44 16.5t33.5 24.5t13.5 31q0 19 -15 34.5t-37 25.5t-46.5 15.5t-43.5 5.5h-17l-1 24h18q18 0 41.5 5 t44.5 15t35 24.5t14 34.5q0 16 -12 30.5t-31 25t-43 16.5t-48 6q-29 0 -61 -9.5t-68 -30.5l-18 18q42 24 77.5 33t67.5 9q33 0 62.5 -7.5t52 -21t35.5 -31t13 -38.5q0 -23 -23 -50t-80 -42q30 -7 51 -18t34 -23.5t19 -25.5t6 -24zM815 95h-82v-95h-27v95h-244l-25 24 l269 245h27v-247h82v-22zM706 120v214l-236 -214h236z" />
<glyph unicode="&#xbf;" horiz-adv-x="734" d="M60 192q0 49 25.5 83t70.5 57q22 11 44 20t48 17q27 8 53 15t49 14q21 6 48 17t51 28.5t40 43.5t16 62v32h33v-35q0 -39 -16 -67.5t-43 -50t-63.5 -37t-76.5 -27.5q-14 -5 -30.5 -9t-34.5 -9q-20 -5 -43.5 -14t-41.5 -17q-18 -9 -35.5 -20t-31 -26t-22 -34.5t-8.5 -44.5 q0 -23 9.5 -44.5t24.5 -38.5q24 -26 57 -43t69.5 -27.5t73.5 -14.5t68 -4q72 0 139.5 18.5t124.5 53.5l26 -25q-67 -42 -140.5 -58.5t-157.5 -16.5q-54 0 -111.5 12.5t-105 37.5t-78.5 63t-31 89zM481 772q0 18 12.5 30.5t29.5 12.5q18 0 30.5 -12.5t12.5 -30.5t-12.5 -30.5 t-30.5 -12.5q-17 0 -29.5 12.5t-12.5 30.5z" />
<glyph unicode="&#xc0;" d="M447 875h-32l-132 167h35zM776 0h-33l-111 242h-472l-111 -242h-34l365 800h30zM619 270l-224 489l-222 -489h446z" />
<glyph unicode="&#xc1;" d="M515 1042l-132 -167h-32l129 167h35zM776 0h-33l-111 242h-472l-111 -242h-34l365 800h30zM619 270l-224 489l-222 -489h446z" />
<glyph unicode="&#xc2;" d="M528 875h-26l-107 151l-111 -151h-27l123 167h27zM776 0h-33l-111 242h-472l-111 -242h-34l365 800h30zM619 270l-224 489l-222 -489h446z" />
<glyph unicode="&#xc3;" d="M776 0h-33l-111 242h-472l-111 -242h-34l365 800h30zM619 270l-224 489l-222 -489h446zM562 965q-6 -42 -27 -66.5t-50 -24.5q-23 0 -42 7.5t-39 18.5q-11 6 -22 11l-22 10t-23.5 8.5t-26.5 3.5q-26 0 -39.5 -17.5t-18.5 -40.5h-25q8 43 30 67t54 24q17 0 36 -6.5 t39 -17.5q11 -6 21.5 -11.5t21.5 -10.5t22.5 -8t25.5 -3q26 0 39.5 17t18.5 39h27z" />
<glyph unicode="&#xc4;" d="M776 0h-33l-111 242h-472l-111 -242h-34l365 800h30zM619 270l-224 489l-222 -489h446zM508 912q0 -15 -10.5 -25.5t-25.5 -10.5t-25.5 10.5t-10.5 25.5t10.5 26t25.5 11t25.5 -11t10.5 -26zM353 912q0 -15 -10.5 -25.5t-25.5 -10.5t-26 10.5t-11 25.5t11 26t26 11 t25.5 -11t10.5 -26z" />
<glyph unicode="&#xc5;" d="M487 965q0 -38 -26.5 -64t-64.5 -26t-64.5 26t-26.5 64q0 18 7 34.5t19.5 29t29 19.5t35.5 7t35.5 -7t29 -19.5t19.5 -29t7 -34.5zM776 0h-33l-111 242h-472l-111 -242h-34l365 800h30zM462 965q0 27 -19.5 46t-46.5 19t-46.5 -19t-19.5 -46q0 -28 19.5 -47t46.5 -19 t46.5 19t19.5 47zM619 270l-224 489l-222 -489h446z" />
<glyph unicode="&#xc6;" horiz-adv-x="1046" d="M1007 -1q-88 0 -172.5 0.5t-172.5 0.5l-86 242h-416l-111 -242h-34l366 800h626v-28h-587l129 -353h397v-28h-387l133 -364h315v-28zM567 270l-172 489l-222 -489h394z" />
<glyph unicode="&#xc7;" horiz-adv-x="802" d="M763 702l-23 -22q-51 48 -118 77.5t-142 29.5q-81 0 -151.5 -31t-123 -84t-82.5 -123t-30 -148t30 -148t82.5 -123.5t123 -84.5t151.5 -31q73 0 140.5 28t118.5 79l23 -22q-57 -54 -130 -84t-152 -30q-11 0 -23 0.5t-23 1.5l-11 -58q8 3 16 4.5t13 2.5q7 2 10.5 1.5 t4.5 -0.5q23 0 43.5 -8t35.5 -22t24 -32.5t9 -40.5t-9 -41t-24 -33t-35.5 -22t-43.5 -8q-15 0 -32.5 5.5t-35.5 19.5l18 17q29 -17 50 -17q18 0 33 6.5t26.5 17.5t18 25t6.5 30q0 32 -24.5 54.5t-59.5 22.5q-10 0 -26 -4.5t-30 -14.5l-20 21l16 78q-74 13 -137.5 50 t-110 91.5t-73 123t-26.5 145.5q0 85 33 160.5t90 132t133.5 89t163.5 32.5q85 0 155.5 -29.5t127.5 -83.5z" />
<glyph unicode="&#xc8;" horiz-adv-x="722" d="M682 -1h-602v801h602v-28h-571v-353h510v-28h-510v-364h571v-28z" />
<glyph unicode="&#xc9;" horiz-adv-x="722" d="M507 1043l-132 -167h-32l129 167h35zM682 -1h-602v801h602v-28h-571v-353h510v-28h-510v-364h571v-28z" />
<glyph unicode="&#xca;" horiz-adv-x="722" d="M527 874h-26l-108 151l-111 -151h-26l123 167h27zM682 -1h-602v801h602v-28h-571v-353h510v-28h-510v-364h571v-28z" />
<glyph unicode="&#xcb;" horiz-adv-x="722" d="M682 -1h-602v801h602v-28h-571v-353h510v-28h-510v-364h571v-28zM510 928q0 -15 -11 -25.5t-26 -10.5t-25.5 10.5t-10.5 25.5t10.5 26t25.5 11t26 -11t11 -26zM354 928q0 -15 -10.5 -25.5t-25.5 -10.5t-25.5 10.5t-10.5 25.5t10.5 26t25.5 11t25.5 -11t10.5 -26z" />
<glyph unicode="&#xcc;" horiz-adv-x="285" d="M209 875h-32l-132 167h35zM205 0h-124v28h47v744h-48v28h125v-28h-46v-744h46v-28z" />
<glyph unicode="&#xcd;" horiz-adv-x="285" d="M244 1042l-132 -167h-32l129 167h35zM205 0h-124v28h47v744h-48v28h125v-28h-46v-744h46v-28z" />
<glyph unicode="&#xce;" horiz-adv-x="285" d="M277 875h-26l-108 151l-111 -151h-26l123 167h27zM205 0h-124v28h47v744h-48v28h125v-28h-46v-744h46v-28z" />
<glyph unicode="&#xcf;" horiz-adv-x="285" d="M205 0h-124v28h47v744h-48v28h125v-28h-46v-744h46v-28zM255 927q0 -15 -11 -25.5t-26 -10.5t-25.5 10.5t-10.5 25.5t10.5 26t25.5 11t26 -11t11 -26zM99 927q0 -15 -10.5 -25.5t-25.5 -10.5t-25.5 10.5t-10.5 25.5t10.5 26t25.5 11t25.5 -11t10.5 -26z" />
<glyph unicode="&#xd0;" horiz-adv-x="835" d="M775 401q0 -83 -32 -156t-86.5 -127.5t-128 -86t-156.5 -31.5h-286v374h-76v27h76v399h287q83 0 156 -31.5t128 -85.5t86.5 -127t31.5 -155zM739 401q0 73 -28.5 140.5t-78 118.5t-116.5 81.5t-143 30.5h-253v-371h190v-27h-190v-346h253q76 0 143 30.5t116.5 81.5 t78 118.5t28.5 142.5z" />
<glyph unicode="&#xd1;" horiz-adv-x="834" d="M591 965q-6 -42 -27 -66.5t-50 -24.5q-23 0 -42 7.5t-39 18.5q-11 6 -22 11l-22 10t-23.5 8.5t-26.5 3.5q-26 0 -39.5 -17.5t-18.5 -40.5h-25q8 43 30 67t54 24q17 0 36 -6.5t39 -17.5q11 -6 21.5 -11.5t21.5 -10.5t22.5 -8t25.5 -3q26 0 39.5 17t18.5 39h27zM754 -1h-35 l-606 758l1 -758h-34v801h35l605 -755v755h34v-801z" />
<glyph unicode="&#xd2;" horiz-adv-x="949" d="M515 875h-32l-131 167h34zM889 401q0 -86 -32.5 -161.5t-89 -132t-132 -89.5t-160.5 -33q-86 0 -161.5 33t-132 89.5t-89 132t-32.5 161.5q0 85 32.5 160.5t89 132t132 89t161.5 32.5q85 0 160.5 -32.5t132 -89t89 -132t32.5 -160.5zM857 401q0 78 -30 148t-82 123 t-121.5 84t-148.5 31q-80 0 -149.5 -31t-121.5 -84t-82 -123t-30 -148t30 -148.5t82 -124t121.5 -84.5t149.5 -31q79 0 148.5 31t121.5 84.5t82 124t30 148.5z" />
<glyph unicode="&#xd3;" horiz-adv-x="949" d="M594 1042l-132 -167h-32l129 167h35zM889 401q0 -86 -32.5 -161.5t-89 -132t-132 -89.5t-160.5 -33q-86 0 -161.5 33t-132 89.5t-89 132t-32.5 161.5q0 85 32.5 160.5t89 132t132 89t161.5 32.5q85 0 160.5 -32.5t132 -89t89 -132t32.5 -160.5zM857 401q0 78 -30 148 t-82 123t-121.5 84t-148.5 31q-80 0 -149.5 -31t-121.5 -84t-82 -123t-30 -148t30 -148.5t82 -124t121.5 -84.5t149.5 -31q79 0 148.5 31t121.5 84.5t82 124t30 148.5z" />
<glyph unicode="&#xd4;" horiz-adv-x="949" d="M608 875h-26l-107 151l-112 -151h-26l123 167h27zM889 401q0 -86 -32.5 -161.5t-89 -132t-132 -89.5t-160.5 -33q-86 0 -161.5 33t-132 89.5t-89 132t-32.5 161.5q0 85 32.5 160.5t89 132t132 89t161.5 32.5q85 0 160.5 -32.5t132 -89t89 -132t32.5 -160.5zM857 401 q0 78 -30 148t-82 123t-121.5 84t-148.5 31q-80 0 -149.5 -31t-121.5 -84t-82 -123t-30 -148t30 -148.5t82 -124t121.5 -84.5t149.5 -31q79 0 148.5 31t121.5 84.5t82 124t30 148.5z" />
<glyph unicode="&#xd5;" horiz-adv-x="949" d="M889 401q0 -86 -32.5 -161.5t-89 -132t-132 -89.5t-160.5 -33q-86 0 -161.5 33t-132 89.5t-89 132t-32.5 161.5q0 85 32.5 160.5t89 132t132 89t161.5 32.5q85 0 160.5 -32.5t132 -89t89 -132t32.5 -160.5zM857 401q0 78 -30 148t-82 123t-121.5 84t-148.5 31 q-80 0 -149.5 -31t-121.5 -84t-82 -123t-30 -148t30 -148.5t82 -124t121.5 -84.5t149.5 -31q79 0 148.5 31t121.5 84.5t82 124t30 148.5zM642 965q-6 -42 -27 -66.5t-50 -24.5q-23 0 -42 7.5t-39 18.5q-11 6 -22 11l-22 10t-23.5 8.5t-26.5 3.5q-26 0 -39.5 -17.5 t-18.5 -40.5h-25q8 43 30 67t54 24q17 0 36 -6.5t39 -17.5q11 -6 21.5 -11.5t21.5 -10.5t22.5 -8t25.5 -3q26 0 39.5 17t18.5 39h27z" />
<glyph unicode="&#xd6;" horiz-adv-x="949" d="M889 401q0 -86 -32.5 -161.5t-89 -132t-132 -89.5t-160.5 -33q-86 0 -161.5 33t-132 89.5t-89 132t-32.5 161.5q0 85 32.5 160.5t89 132t132 89t161.5 32.5q85 0 160.5 -32.5t132 -89t89 -132t32.5 -160.5zM857 401q0 78 -30 148t-82 123t-121.5 84t-148.5 31 q-80 0 -149.5 -31t-121.5 -84t-82 -123t-30 -148t30 -148.5t82 -124t121.5 -84.5t149.5 -31q79 0 148.5 31t121.5 84.5t82 124t30 148.5zM588 912q0 -15 -10.5 -25.5t-25.5 -10.5t-25.5 10.5t-10.5 25.5t10.5 26t25.5 11t25.5 -11t10.5 -26zM433 912q0 -15 -10.5 -25.5 t-25.5 -10.5t-26 10.5t-11 25.5t11 26t26 11t25.5 -11t10.5 -26z" />
<glyph unicode="&#xd7;" horiz-adv-x="597" d="M509 564l-190 -188l190 -189l-20 -20l-191 189l-190 -189l-20 20l191 189l-191 188l20 20l190 -189l191 189z" />
<glyph unicode="&#xd8;" horiz-adv-x="949" d="M889 400q0 -86 -32.5 -161.5t-89 -131.5t-132 -89t-160.5 -33q-51 0 -97.5 11.5t-91.5 33.5l-62 -116l-21 21l59 109q-47 28 -84.5 67t-63.5 85t-40 98t-14 107q0 85 32.5 160.5t89 132t132 89t161.5 32.5q94 0 178 -40l61 114l20 -22l-56 -105q49 -28 88 -67t66.5 -86 t42 -100t14.5 -109zM857 401q0 51 -14.5 99.5t-40 92t-61 79.5t-78.5 62l-362 -676q42 -20 85 -31.5t89 -11.5q78 0 147.5 31t121.5 83.5t82.5 123t30.5 148.5zM638 748q-39 17 -80 27t-83 10q-78 0 -148 -31t-122 -83.5t-82.5 -122.5t-30.5 -148q0 -49 13.5 -96.5t38 -90 t58 -78.5t74.5 -63z" />
<glyph unicode="&#xd9;" horiz-adv-x="844" d="M471 876h-32l-131 167h34zM764 800v-473q0 -71 -26.5 -133t-72.5 -108.5t-108 -73.5t-134 -27t-134.5 27t-109 73t-73 108t-26.5 133v474h30v-478q0 -64 24.5 -120t67.5 -98t99.5 -66.5t121.5 -24.5q64 0 120.5 24t99 66t67 98t24.5 119v480h30z" />
<glyph unicode="&#xda;" horiz-adv-x="844" d="M534 1042l-132 -167h-32l129 167h35zM764 800v-473q0 -71 -26.5 -133t-72.5 -108.5t-108 -73.5t-134 -27t-134.5 27t-109 73t-73 108t-26.5 133v474h30v-478q0 -64 24.5 -120t67.5 -98t99.5 -66.5t121.5 -24.5q64 0 120.5 24t99 66t67 98t24.5 119v480h30z" />
<glyph unicode="&#xdb;" horiz-adv-x="844" d="M556 874h-26l-107 151l-112 -151h-26l123 167h27zM764 800v-473q0 -71 -26.5 -133t-72.5 -108.5t-108 -73.5t-134 -27t-134.5 27t-109 73t-73 108t-26.5 133v474h30v-478q0 -64 24.5 -120t67.5 -98t99.5 -66.5t121.5 -24.5q64 0 120.5 24t99 66t67 98t24.5 119v480h30z " />
<glyph unicode="&#xdc;" horiz-adv-x="844" d="M764 800v-473q0 -71 -26.5 -133t-72.5 -108.5t-108 -73.5t-134 -27t-134.5 27t-109 73t-73 108t-26.5 133v474h30v-478q0 -64 24.5 -120t67.5 -98t99.5 -66.5t121.5 -24.5q64 0 120.5 24t99 66t67 98t24.5 119v480h30zM544 912q0 -15 -10.5 -25.5t-25.5 -10.5t-25.5 10.5 t-10.5 25.5t10.5 26t25.5 11t25.5 -11t10.5 -26zM389 912q0 -15 -10.5 -25.5t-25.5 -10.5t-26 10.5t-11 25.5t11 26t26 11t25.5 -11t10.5 -26z" />
<glyph unicode="&#xdd;" horiz-adv-x="720" d="M472 1043l-132 -167h-32l129 167h35zM710 800l-335 -452v-348h-30v348l-335 452h37l313 -423l311 423h39z" />
<glyph unicode="&#xde;" horiz-adv-x="739" d="M709 398q0 -49 -19 -92.5t-52 -75.5t-77.5 -51t-94.5 -19h-355v-161h-31v801h31v-164h355q50 0 94.5 -19t77.5 -51t52 -75.5t19 -92.5zM677 398q0 43 -16.5 81t-45.5 66.5t-68 45.5t-83 17h-353v-420h351q44 0 83 16.5t68.5 45t46.5 66.5t17 82z" />
<glyph unicode="&#xdf;" horiz-adv-x="671" d="M621 216q0 -50 -19.5 -92.5t-53 -73.5t-77.5 -48.5t-92 -17.5q-40 0 -77.5 7t-73.5 24v32q33 -18 73 -27.5t78 -9.5q42 0 80 16t67 43.5t46 65t17 80.5q0 49 -18.5 87t-50 64t-73 39t-87.5 13h-131v26l96 -1q42 0 79 13.5t64.5 38t43.5 59.5t16 79q0 42 -17.5 79.5 t-46.5 65.5t-67 44.5t-78 16.5q-45 0 -83 -15t-65.5 -42t-43.5 -65t-16 -83v-633h-31v640q0 50 19.5 91.5t52.5 71t76.5 45.5t91.5 16q45 0 88 -18t76 -49t53 -73.5t20 -90.5q0 -31 -8 -60t-23.5 -54.5t-37.5 -46t-50 -33.5q85 -19 134 -77.5t49 -146.5z" />
<glyph unicode="&#xe0;" d="M439 711h-31l-132 167h35zM711 1h-29v177q-26 -53 -61.5 -90t-75.5 -60t-82 -33t-81 -10q-69 0 -129.5 26t-105.5 71t-71 105.5t-26 129.5t26 129.5t71 105.5t105.5 71t129.5 26q40 0 83 -11t83 -34t75 -59.5t59 -87.5v176h29v-632zM683 317q0 61 -23.5 117t-64.5 98 t-96 67t-117 25t-117.5 -25t-96.5 -67t-65 -98t-24 -117t24 -116.5t65 -98t96 -67.5t118 -25t117.5 25t95.5 67.5t64.5 98t23.5 116.5z" />
<glyph unicode="&#xe1;" d="M515 878l-132 -167h-32l129 167h35zM711 1h-29v177q-26 -53 -61.5 -90t-75.5 -60t-82 -33t-81 -10q-69 0 -129.5 26t-105.5 71t-71 105.5t-26 129.5t26 129.5t71 105.5t105.5 71t129.5 26q40 0 83 -11t83 -34t75 -59.5t59 -87.5v176h29v-632zM683 317q0 61 -23.5 117 t-64.5 98t-96 67t-117 25t-117.5 -25t-96.5 -67t-65 -98t-24 -117t24 -116.5t65 -98t96 -67.5t118 -25t117.5 25t95.5 67.5t64.5 98t23.5 116.5z" />
<glyph unicode="&#xe2;" d="M528 710h-26l-107 151l-112 -151h-26l123 167h27zM711 1h-29v177q-26 -53 -61.5 -90t-75.5 -60t-82 -33t-81 -10q-69 0 -129.5 26t-105.5 71t-71 105.5t-26 129.5t26 129.5t71 105.5t105.5 71t129.5 26q40 0 83 -11t83 -34t75 -59.5t59 -87.5v176h29v-632zM683 317 q0 61 -23.5 117t-64.5 98t-96 67t-117 25t-117.5 -25t-96.5 -67t-65 -98t-24 -117t24 -116.5t65 -98t96 -67.5t118 -25t117.5 25t95.5 67.5t64.5 98t23.5 116.5z" />
<glyph unicode="&#xe3;" d="M561 799q-6 -42 -26.5 -66.5t-50.5 -24.5q-23 0 -42 7.5t-39 18.5q-11 6 -21.5 11t-21.5 10q-12 5 -24 8.5t-27 3.5q-26 0 -39 -17.5t-18 -40.5h-25q8 43 29.5 67t53.5 24q18 0 36.5 -6.5t38.5 -17.5q11 -6 21.5 -11.5t21.5 -10.5t23 -8t26 -3q26 0 39 17t18 39h27z M711 1h-29v177q-26 -53 -61.5 -90t-75.5 -60t-82 -33t-81 -10q-69 0 -129.5 26t-105.5 71t-71 105.5t-26 129.5t26 129.5t71 105.5t105.5 71t129.5 26q40 0 83 -11t83 -34t75 -59.5t59 -87.5v176h29v-632zM683 317q0 61 -23.5 117t-64.5 98t-96 67t-117 25t-117.5 -25 t-96.5 -67t-65 -98t-24 -117t24 -116.5t65 -98t96 -67.5t118 -25t117.5 25t95.5 67.5t64.5 98t23.5 116.5z" />
<glyph unicode="&#xe4;" d="M711 1h-29v177q-26 -53 -61.5 -90t-75.5 -60t-82 -33t-81 -10q-69 0 -129.5 26t-105.5 71t-71 105.5t-26 129.5t26 129.5t71 105.5t105.5 71t129.5 26q40 0 83 -11t83 -34t75 -59.5t59 -87.5v176h29v-632zM683 317q0 61 -23.5 117t-64.5 98t-96 67t-117 25t-117.5 -25 t-96.5 -67t-65 -98t-24 -117t24 -116.5t65 -98t96 -67.5t118 -25t117.5 25t95.5 67.5t64.5 98t23.5 116.5zM496 746q0 -15 -10.5 -25.5t-25.5 -10.5t-26 10.5t-11 25.5t11 25.5t26 10.5t25.5 -10.5t10.5 -25.5zM341 746q0 -15 -10.5 -25.5t-25.5 -10.5t-26 10.5t-11 25.5 t11 25.5t26 10.5t25.5 -10.5t10.5 -25.5z" />
<glyph unicode="&#xe5;" d="M480 800q0 -38 -26.5 -64t-64.5 -26t-64.5 26t-26.5 64q0 18 7 34.5t19.5 29t29 19.5t35.5 7t35.5 -7t29 -19.5t19.5 -29t7 -34.5zM711 1h-29v177q-26 -53 -61.5 -90t-75.5 -60t-82 -33t-81 -10q-69 0 -129.5 26t-105.5 71t-71 105.5t-26 129.5t26 129.5t71 105.5 t105.5 71t129.5 26q40 0 83 -11t83 -34t75 -59.5t59 -87.5v176h29v-632zM455 800q0 27 -19.5 46t-46.5 19t-46.5 -19t-19.5 -46q0 -28 19.5 -47t46.5 -19t46.5 19t19.5 47zM683 317q0 61 -23.5 117t-64.5 98t-96 67t-117 25t-117.5 -25t-96.5 -67t-65 -98t-24 -117 t24 -116.5t65 -98t96 -67.5t118 -25t117.5 25t95.5 67.5t64.5 98t23.5 116.5z" />
<glyph unicode="&#xe6;" horiz-adv-x="1323" d="M1273 318v-11h-602q5 -68 29.5 -123t63 -93.5t88 -59.5t104.5 -21q54 0 99.5 19.5t82.5 54.5l21 -22q-42 -36 -93.5 -56.5t-109.5 -20.5q-37 0 -75 8.5t-73.5 29t-67 53t-55.5 80.5v-155h-30v196q-21 -55 -51.5 -95t-67.5 -66t-80 -38.5t-89 -12.5q-66 0 -123.5 26 t-100.5 71t-68 105.5t-25 129.5t25 129.5t68 105.5t100.5 71t123.5 26q39 0 80 -10.5t79.5 -35t72 -64.5t56.5 -100v194h30v-159q18 39 45.5 71t62.5 55t76.5 36t86.5 13q66 0 124 -26t101 -71q42 -45 67 -105t25 -129zM1244 330q-2 109 -81 201q-39 45 -92.5 69t-114.5 24 q-54 0 -103.5 -21.5t-88.5 -60.5t-64 -93t-29 -119h573zM654 317q0 61 -22.5 117t-61 98t-91 67t-112.5 25t-112 -25t-91 -67t-61.5 -98t-22.5 -117t22.5 -116.5t61 -98t91 -67.5t112.5 -25t112.5 25t91.5 67.5t61 98t22 116.5z" />
<glyph unicode="&#xe7;" horiz-adv-x="651" d="M621 89q-22 -25 -49.5 -44.5t-58 -32.5t-63 -20t-63.5 -7q-22 0 -43 3l-11 -59q10 3 17.5 5t13.5 3q7 1 10.5 1h4.5q23 0 43.5 -8t36 -22t24.5 -33t9 -41t-9 -41t-24.5 -33.5t-36 -22.5t-43.5 -8q-15 0 -33 5.5t-36 18.5l19 17q26 -17 50 -17q36 0 61 24t25 57 q0 32 -25 55.5t-61 23.5q-11 0 -26.5 -5t-29.5 -15l-20 20l16 79q-59 11 -108.5 40.5t-85 73t-55.5 97.5t-20 114q0 69 26 129.5t71 105.5t106.5 71t133.5 26q67 0 126 -26.5t108 -75.5l-21 -20q-42 45 -97.5 71t-115.5 26q-65 0 -121.5 -25t-97.5 -67t-64.5 -98t-23.5 -117 t23.5 -116.5t64.5 -98t97 -67.5t122 -25q28 0 58.5 7.5t59 20.5t53.5 31.5t42 40.5z" />
<glyph unicode="&#xe8;" horiz-adv-x="763" d="M429 711h-31l-132 167h35zM713 318v-12h-634q4 -60 28.5 -114t65 -94.5t94 -64t115.5 -23.5q54 0 102 19t90 53l20 -20q-45 -37 -99.5 -57t-112.5 -20q-69 0 -129.5 26.5t-105.5 71.5t-71 105.5t-26 128.5q0 69 26 129.5t71 105.5t105.5 71t129.5 26t129 -26.5t105 -72 t71 -105.5t26 -127zM684 330q-4 60 -28.5 113.5t-65 93.5t-94 63.5t-114.5 23.5q-62 0 -115.5 -24t-94.5 -64.5t-65.5 -94t-27.5 -111.5h605z" />
<glyph unicode="&#xe9;" horiz-adv-x="763" d="M503 878l-132 -167h-32l129 167h35zM713 318v-12h-634q4 -60 28.5 -114t65 -94.5t94 -64t115.5 -23.5q54 0 102 19t90 53l20 -20q-45 -37 -99.5 -57t-112.5 -20q-69 0 -129.5 26.5t-105.5 71.5t-71 105.5t-26 128.5q0 69 26 129.5t71 105.5t105.5 71t129.5 26t129 -26.5 t105 -72t71 -105.5t26 -127zM684 330q-4 60 -28.5 113.5t-65 93.5t-94 63.5t-114.5 23.5q-62 0 -115.5 -24t-94.5 -64.5t-65.5 -94t-27.5 -111.5h605z" />
<glyph unicode="&#xea;" horiz-adv-x="763" d="M515 710h-26l-107 151l-112 -151h-26l123 167h27zM713 318v-12h-634q4 -60 28.5 -114t65 -94.5t94 -64t115.5 -23.5q54 0 102 19t90 53l20 -20q-45 -37 -99.5 -57t-112.5 -20q-69 0 -129.5 26.5t-105.5 71.5t-71 105.5t-26 128.5q0 69 26 129.5t71 105.5t105.5 71 t129.5 26t129 -26.5t105 -72t71 -105.5t26 -127zM684 330q-4 60 -28.5 113.5t-65 93.5t-94 63.5t-114.5 23.5q-62 0 -115.5 -24t-94.5 -64.5t-65.5 -94t-27.5 -111.5h605z" />
<glyph unicode="&#xeb;" horiz-adv-x="763" d="M713 318v-12h-634q4 -60 28.5 -114t65 -94.5t94 -64t115.5 -23.5q54 0 102 19t90 53l20 -20q-45 -37 -99.5 -57t-112.5 -20q-69 0 -129.5 26.5t-105.5 71.5t-71 105.5t-26 128.5q0 69 26 129.5t71 105.5t105.5 71t129.5 26t129 -26.5t105 -72t71 -105.5t26 -127zM684 330 q-4 60 -28.5 113.5t-65 93.5t-94 63.5t-114.5 23.5q-62 0 -115.5 -24t-94.5 -64.5t-65.5 -94t-27.5 -111.5h605zM498 746q0 -15 -10.5 -25.5t-25.5 -10.5t-26 10.5t-11 25.5t11 25.5t26 10.5t25.5 -10.5t10.5 -25.5zM343 746q0 -15 -10.5 -25.5t-25.5 -10.5t-26 10.5 t-11 25.5t11 25.5t26 10.5t25.5 -10.5t10.5 -25.5z" />
<glyph unicode="&#xec;" horiz-adv-x="216" d="M147 711h-31l-132 167h35zM126 0h-31v607h-46v26h77v-633z" />
<glyph unicode="&#xed;" horiz-adv-x="216" d="M198 878l-132 -167h-32l129 167h35zM126 0h-31v607h-46v26h77v-633z" />
<glyph unicode="&#xee;" horiz-adv-x="216" d="M231 710h-26l-107 151l-112 -151h-26l123 167h27zM126 0h-31v607h-46v26h77v-633z" />
<glyph unicode="&#xef;" horiz-adv-x="216" d="M126 0h-31v607h-46v26h77v-633zM213 746q0 -15 -10.5 -25.5t-25.5 -10.5t-25.5 10.5t-10.5 25.5t10.5 26t25.5 11t25.5 -11t10.5 -26zM58 746q0 -15 -10.5 -25.5t-25.5 -10.5t-26 10.5t-11 25.5t11 26t26 11t25.5 -11t10.5 -26z" />
<glyph unicode="&#xf0;" horiz-adv-x="763" d="M713 309q0 -67 -26 -126t-71 -103t-105 -69.5t-129 -25.5t-129.5 25.5t-105.5 69.5t-71 103t-26 126t26 127.5t71 106t105.5 72t129.5 26.5q29 0 69 -7t76 -22l-129 170l-71 -48l-12 18l71 47l-50 66h38l37 -49l74 50l13 -18l-75 -50l228 -299q25 -32 43.5 -76.5 t18.5 -113.5zM682 313q0 60 -23.5 114.5t-64 96t-95.5 66t-117 24.5t-117 -24.5t-96 -66t-64.5 -96t-23.5 -114.5t23.5 -114t64.5 -95.5t95.5 -66t117.5 -24.5q62 0 117 24.5t95.5 66t64 95.5t23.5 114z" />
<glyph unicode="&#xf1;" horiz-adv-x="733" d="M538 799q-6 -42 -26.5 -66.5t-50.5 -24.5q-23 0 -42 7.5t-39 18.5q-11 6 -21.5 11t-21.5 10q-12 5 -24 8.5t-27 3.5q-26 0 -39 -17.5t-18 -40.5h-25q8 43 29.5 67t53.5 24q18 0 36.5 -6.5t38.5 -17.5q11 -6 21.5 -11.5t21.5 -10.5t23 -8t26 -3q26 0 39 17t18 39h27z M658 364v-364h-30v361q0 61 -20.5 109.5t-55.5 82.5t-81.5 52.5t-98.5 18.5q-51 0 -98 -20.5t-83.5 -55t-58.5 -80t-22 -96.5v-372h-30v633h30v-137q20 36 48.5 64.5t63 48t73 30t78.5 10.5q61 0 113.5 -21t90.5 -59t59.5 -90t21.5 -115z" />
<glyph unicode="&#xf2;" horiz-adv-x="763" d="M418 711h-31l-132 167h35zM713 317q0 -69 -26 -129.5t-71 -105.5t-105 -71t-129 -26t-129.5 26t-105.5 71t-71 105.5t-26 129.5t26 129.5t71 105.5t105.5 71t129.5 26t129 -26t105 -71t71 -105.5t26 -129.5zM684 317q0 61 -24 117t-65 98t-96 67t-117 25t-117.5 -25 t-96.5 -67t-65 -98t-24 -117t24 -116.5t65 -98t96 -67.5t118 -25q62 0 117 25t96 67.5t65 98t24 116.5z" />
<glyph unicode="&#xf3;" horiz-adv-x="763" d="M494 878l-132 -167h-32l129 167h35zM713 317q0 -69 -26 -129.5t-71 -105.5t-105 -71t-129 -26t-129.5 26t-105.5 71t-71 105.5t-26 129.5t26 129.5t71 105.5t105.5 71t129.5 26t129 -26t105 -71t71 -105.5t26 -129.5zM684 317q0 61 -24 117t-65 98t-96 67t-117 25 t-117.5 -25t-96.5 -67t-65 -98t-24 -117t24 -116.5t65 -98t96 -67.5t118 -25q62 0 117 25t96 67.5t65 98t24 116.5z" />
<glyph unicode="&#xf4;" horiz-adv-x="763" d="M515 710h-26l-107 151l-112 -151h-26l123 167h27zM713 317q0 -69 -26 -129.5t-71 -105.5t-105 -71t-129 -26t-129.5 26t-105.5 71t-71 105.5t-26 129.5t26 129.5t71 105.5t105.5 71t129.5 26t129 -26t105 -71t71 -105.5t26 -129.5zM684 317q0 61 -24 117t-65 98t-96 67 t-117 25t-117.5 -25t-96.5 -67t-65 -98t-24 -117t24 -116.5t65 -98t96 -67.5t118 -25q62 0 117 25t96 67.5t65 98t24 116.5z" />
<glyph unicode="&#xf5;" horiz-adv-x="763" d="M547 799q-6 -42 -26.5 -66.5t-50.5 -24.5q-23 0 -42 7.5t-39 18.5q-11 6 -21.5 11t-21.5 10q-12 5 -24 8.5t-27 3.5q-26 0 -39 -17.5t-18 -40.5h-25q8 43 29.5 67t53.5 24q18 0 36.5 -6.5t38.5 -17.5q11 -6 21.5 -11.5t21.5 -10.5t23 -8t26 -3q26 0 39 17t18 39h27z M713 317q0 -69 -26 -129.5t-71 -105.5t-105 -71t-129 -26t-129.5 26t-105.5 71t-71 105.5t-26 129.5t26 129.5t71 105.5t105.5 71t129.5 26t129 -26t105 -71t71 -105.5t26 -129.5zM684 317q0 61 -24 117t-65 98t-96 67t-117 25t-117.5 -25t-96.5 -67t-65 -98t-24 -117 t24 -116.5t65 -98t96 -67.5t118 -25q62 0 117 25t96 67.5t65 98t24 116.5z" />
<glyph unicode="&#xf6;" horiz-adv-x="763" d="M713 317q0 -69 -26 -129.5t-71 -105.5t-105 -71t-129 -26t-129.5 26t-105.5 71t-71 105.5t-26 129.5t26 129.5t71 105.5t105.5 71t129.5 26t129 -26t105 -71t71 -105.5t26 -129.5zM684 317q0 61 -24 117t-65 98t-96 67t-117 25t-117.5 -25t-96.5 -67t-65 -98t-24 -117 t24 -116.5t65 -98t96 -67.5t118 -25q62 0 117 25t96 67.5t65 98t24 116.5zM495 746q0 -15 -11 -25.5t-26 -10.5t-25.5 10.5t-10.5 25.5t10.5 26t25.5 11t26 -11t11 -26zM339 746q0 -15 -10.5 -25.5t-25.5 -10.5t-25.5 10.5t-10.5 25.5t10.5 26t25.5 11t25.5 -11t10.5 -26z " />
<glyph unicode="&#xf7;" horiz-adv-x="636" d="M596 348h-556v28h556v-28zM365 198q0 -20 -13.5 -33.5t-33.5 -13.5t-33.5 13.5t-13.5 33.5t13.5 33.5t33.5 13.5t33.5 -13.5t13.5 -33.5zM365 518q0 -20 -13.5 -33.5t-33.5 -13.5t-33.5 13.5t-13.5 33.5t13.5 33.5t33.5 13.5t33.5 -13.5t13.5 -33.5z" />
<glyph unicode="&#xf8;" horiz-adv-x="763" d="M713 317q0 -69 -26 -129.5t-71 -105.5t-105 -71t-129 -26q-39 0 -76 8.5t-69 24.5l-58 -107l-19 18l54 102q-37 21 -67 51t-51.5 67t-33.5 79.5t-12 88.5q0 69 26 129.5t71 105.5t105.5 71t129.5 26q79 0 147 -35l59 110l19 -20l-55 -102q73 -45 117 -119.5t44 -165.5z M684 317q0 40 -10.5 78.5t-29.5 72t-45.5 61.5t-59.5 49l-290 -536q30 -15 63.5 -23.5t69.5 -8.5q62 0 117 25t96 67.5t65 98t24 116.5zM516 591q-30 16 -64 24.5t-70 8.5q-62 0 -117.5 -25t-96.5 -67t-65 -98t-24 -117q0 -83 40.5 -151.5t107.5 -110.5z" />
<glyph unicode="&#xf9;" horiz-adv-x="733" d="M419 711h-31l-132 167h35zM653 1h-30l1 136q-21 -36 -50 -64t-63.5 -47.5t-72 -30t-74.5 -10.5q-63 0 -116 20t-91.5 57.5t-60 91t-21.5 119.5v361h30v-361q0 -61 22 -109.5t58 -82.5t82.5 -52.5t96.5 -18.5q49 0 96 19.5t83 53.5t58 79.5t22 98.5v373h30v-633z" />
<glyph unicode="&#xfa;" horiz-adv-x="733" d="M481 878l-132 -167h-32l129 167h35zM653 1h-30l1 136q-21 -36 -50 -64t-63.5 -47.5t-72 -30t-74.5 -10.5q-63 0 -116 20t-91.5 57.5t-60 91t-21.5 119.5v361h30v-361q0 -61 22 -109.5t58 -82.5t82.5 -52.5t96.5 -18.5q49 0 96 19.5t83 53.5t58 79.5t22 98.5v373h30v-633z " />
<glyph unicode="&#xfb;" horiz-adv-x="733" d="M503 710h-26l-107 151l-112 -151h-26l123 167h27zM653 1h-30l1 136q-21 -36 -50 -64t-63.5 -47.5t-72 -30t-74.5 -10.5q-63 0 -116 20t-91.5 57.5t-60 91t-21.5 119.5v361h30v-361q0 -61 22 -109.5t58 -82.5t82.5 -52.5t96.5 -18.5q49 0 96 19.5t83 53.5t58 79.5t22 98.5 v373h30v-633z" />
<glyph unicode="&#xfc;" horiz-adv-x="733" d="M653 1h-30l1 136q-21 -36 -50 -64t-63.5 -47.5t-72 -30t-74.5 -10.5q-63 0 -116 20t-91.5 57.5t-60 91t-21.5 119.5v361h30v-361q0 -61 22 -109.5t58 -82.5t82.5 -52.5t96.5 -18.5q49 0 96 19.5t83 53.5t58 79.5t22 98.5v373h30v-633zM481 746q0 -15 -11 -25.5t-26 -10.5 t-25.5 10.5t-10.5 25.5t10.5 26t25.5 11t26 -11t11 -26zM325 746q0 -15 -10.5 -25.5t-25.5 -10.5t-25.5 10.5t-10.5 25.5t10.5 26t25.5 11t25.5 -11t10.5 -26z" />
<glyph unicode="&#xfd;" horiz-adv-x="638" d="M441 878l-132 -167h-32l129 167h35zM628 634l-413 -856h-35l120 248l-290 608h37l268 -574l277 574h36z" />
<glyph unicode="&#xfe;" d="M741 312q0 -66 -26 -125t-71 -103t-105.5 -69.5t-129.5 -25.5q-38 0 -79 9.5t-80.5 31.5t-75.5 58.5t-65 90.5v-400h-29v1036h29v-371q26 56 62 94.5t76.5 62t82 34t79.5 10.5q69 0 129.5 -27t105.5 -73t71 -106.5t26 -126.5zM710 312q0 59 -23.5 114.5t-64.5 98 t-95.5 68.5t-117.5 26q-62 0 -117 -26t-95.5 -68.5t-64 -98t-23.5 -114.5q0 -60 23.5 -114t64.5 -95t95.5 -65t116.5 -24t117 24t96 65t64.5 95t23.5 114z" />
<glyph unicode="&#xff;" horiz-adv-x="638" d="M628 634l-413 -856h-35l120 248l-290 608h37l268 -574l277 574h36zM434 761q0 -15 -10.5 -25.5t-25.5 -10.5t-25.5 10.5t-10.5 25.5t10.5 26t25.5 11t25.5 -11t10.5 -26zM279 761q0 -15 -10.5 -25.5t-25.5 -10.5t-26 10.5t-11 25.5t11 26t26 11t25.5 -11t10.5 -26z" />
<glyph unicode="&#x152;" horiz-adv-x="1396" d="M1356 1h-573v151q-67 -92 -148.5 -130t-171.5 -37q-83 1 -156.5 34t-128.5 89t-86.5 131.5t-31.5 161.5t31.5 161.5t86.5 131.5t128.5 88.5t156.5 32.5q38 0 81.5 -9.5t86.5 -29.5t82.5 -52t69.5 -77v152h573v-28h-541v-168q20 -39 32.5 -81t19.5 -103h431v-28h-431 q-5 -65 -17.5 -108.5t-34.5 -84.5v-169h541v-28zM835 401q0 78 -29 148t-79.5 123t-118.5 84t-145 31t-144.5 -31t-118 -84t-80 -123t-29.5 -148t29 -148.5t79.5 -124t118.5 -84.5t145 -31q78 0 145.5 31t118 84.5t79.5 124t29 148.5z" />
<glyph unicode="&#x153;" horiz-adv-x="1334" d="M1284 318v-11h-607q6 -64 31.5 -118.5t64.5 -94t89 -62t105 -22.5q54 0 100.5 20t84.5 52l18 -20q-42 -36 -93.5 -56.5t-109.5 -20.5q-46 0 -91.5 14.5t-85.5 43.5t-72 72.5t-51 101.5q-19 -56 -51 -99.5t-72 -73t-85.5 -44.5t-91.5 -15q-66 0 -123.5 26t-100.5 71 t-68 105.5t-25 129.5t25 129.5t68 105.5t100.5 71t123.5 26q47 0 93 -15t85.5 -43.5t71 -71t48.5 -97.5q19 57 50.5 100t71.5 71t86 42t94 14q66 0 124 -26t101 -71q42 -45 67 -105t25 -129zM1257 330q-4 60 -23.5 107.5t-59.5 93.5q-39 45 -92.5 69t-114.5 24 q-62 0 -113.5 -24t-90 -64.5t-61 -94t-25.5 -111.5h580zM654 317q0 61 -22.5 117t-61 98t-91 67t-112.5 25t-112 -25t-91 -67t-61.5 -98t-22.5 -117t22.5 -116.5t61 -98t91 -67.5t112.5 -25t112.5 25t91.5 67.5t61 98t22 116.5z" />
<glyph unicode="&#x178;" horiz-adv-x="720" d="M710 800l-335 -452v-348h-30v348l-335 452h37l313 -423l311 423h39zM476 912q0 -15 -11 -25.5t-26 -10.5t-25.5 10.5t-10.5 25.5t10.5 26t25.5 11t26 -11t11 -26zM320 912q0 -15 -10.5 -25.5t-25.5 -10.5t-25.5 10.5t-10.5 25.5t10.5 26t25.5 11t25.5 -11t10.5 -26z" />
<glyph unicode="&#x2c6;" horiz-adv-x="680" d="M469 710h-26l-107 151l-112 -151h-26l123 167h27z" />
<glyph unicode="&#x2dc;" horiz-adv-x="733" d="M538 799q-6 -42 -26.5 -66.5t-50.5 -24.5q-23 0 -42 7.5t-39 18.5q-11 6 -21.5 11t-21.5 10q-12 5 -24 8.5t-27 3.5q-26 0 -39 -17.5t-18 -40.5h-25q8 43 29.5 67t53.5 24q18 0 36.5 -6.5t38.5 -17.5q11 -6 21.5 -11.5t21.5 -10.5t23 -8t26 -3q26 0 39 17t18 39h27z" />
<glyph unicode="&#x2000;" horiz-adv-x="527" />
<glyph unicode="&#x2001;" horiz-adv-x="1055" />
<glyph unicode="&#x2002;" horiz-adv-x="527" />
<glyph unicode="&#x2003;" horiz-adv-x="1055" />
<glyph unicode="&#x2004;" horiz-adv-x="351" />
<glyph unicode="&#x2005;" horiz-adv-x="263" />
<glyph unicode="&#x2006;" horiz-adv-x="175" />
<glyph unicode="&#x2007;" horiz-adv-x="175" />
<glyph unicode="&#x2008;" horiz-adv-x="131" />
<glyph unicode="&#x2009;" horiz-adv-x="211" />
<glyph unicode="&#x200a;" horiz-adv-x="58" />
<glyph unicode="&#x2010;" horiz-adv-x="360" d="M350 305h-340v28h340v-28z" />
<glyph unicode="&#x2011;" horiz-adv-x="360" d="M350 305h-340v28h340v-28z" />
<glyph unicode="&#x2012;" horiz-adv-x="360" d="M350 305h-340v28h340v-28z" />
<glyph unicode="&#x2013;" horiz-adv-x="610" d="M600 305h-590v28h590v-28z" />
<glyph unicode="&#x2014;" horiz-adv-x="770" d="M760 305h-750v28h750v-28z" />
<glyph unicode="&#x2018;" horiz-adv-x="159" d="M124 795l-52 -61q14 -5 23 -17.5t9 -28.5q0 -20 -13.5 -33.5t-33.5 -13.5t-33.5 13.5t-13.5 33.5q0 10 4 18t9 15l78 92z" />
<glyph unicode="&#x2019;" horiz-adv-x="159" d="M149 766q0 -10 -4 -18t-10 -15l-77 -92l-23 18l52 62q-14 5 -23.5 17.5t-9.5 27.5q0 20 13.5 33.5t33.5 13.5t34 -13.5t14 -33.5z" />
<glyph unicode="&#x201a;" horiz-adv-x="159" d="M149 41q0 -10 -4 -18t-10 -15l-77 -92l-23 18l52 62q-14 5 -23.5 17.5t-9.5 27.5q0 20 13.5 33.5t33.5 13.5t34 -13.5t14 -33.5z" />
<glyph unicode="&#x201c;" horiz-adv-x="281" d="M246 795l-52 -61q14 -5 23.5 -17.5t9.5 -28.5q0 -20 -13.5 -33.5t-33.5 -13.5t-34 13.5t-14 33.5q0 10 4 18t10 15l77 92zM124 795l-52 -61q14 -5 23 -17.5t9 -28.5q0 -20 -13.5 -33.5t-33.5 -13.5t-33.5 13.5t-13.5 33.5q0 10 4 18t9 15l78 92z" />
<glyph unicode="&#x201d;" horiz-adv-x="281" d="M271 766q0 -10 -4 -18t-9 -15l-78 -92l-23 18l52 62q-14 5 -23 17.5t-9 27.5q0 20 13.5 33.5t33.5 13.5t33.5 -13.5t13.5 -33.5zM149 766q0 -10 -4 -18t-10 -15l-77 -92l-23 18l52 62q-14 5 -23.5 17.5t-9.5 27.5q0 20 13.5 33.5t33.5 13.5t34 -13.5t14 -33.5z" />
<glyph unicode="&#x201e;" horiz-adv-x="281" d="M271 41q0 -10 -4 -18t-9 -15l-78 -92l-23 18l52 62q-14 5 -23 17.5t-9 27.5q0 20 13.5 33.5t33.5 13.5t33.5 -13.5t13.5 -33.5zM149 41q0 -10 -4 -18t-10 -15l-77 -92l-23 18l52 62q-14 5 -23.5 17.5t-9.5 27.5q0 20 13.5 33.5t33.5 13.5t34 -13.5t14 -33.5z" />
<glyph unicode="&#x2022;" horiz-adv-x="294" d="M194 407q0 -42 -27.5 -69.5t-69.5 -27.5t-69.5 27.5t-27.5 69.5t27.5 69.5t69.5 27.5t69.5 -27.5t27.5 -69.5z" />
<glyph unicode="&#x2026;" horiz-adv-x="584" d="M139 40q0 -20 -13.5 -34t-33.5 -14t-33.5 14t-13.5 34t13.5 33.5t33.5 13.5t33.5 -13.5t13.5 -33.5zM329 40q0 -20 -13.5 -34t-33.5 -14t-33.5 14t-13.5 34t13.5 33.5t33.5 13.5t33.5 -13.5t13.5 -33.5zM519 40q0 -20 -13.5 -34t-33.5 -14t-33.5 14t-13.5 34t13.5 33.5 t33.5 13.5t33.5 -13.5t13.5 -33.5z" />
<glyph unicode="&#x202f;" horiz-adv-x="211" />
<glyph unicode="&#x2039;" horiz-adv-x="250" d="M210 128l-170 151v29l170 152v-41l-140 -127l140 -124v-40z" />
<glyph unicode="&#x203a;" horiz-adv-x="250" d="M210 279l-170 -151v40l140 124l-140 127v41l170 -152v-29z" />
<glyph unicode="&#x205f;" horiz-adv-x="263" />
<glyph unicode="&#x20ac;" horiz-adv-x="794" d="M763 702l-23 -22q-51 48 -118 77.5t-142 29.5q-67 0 -126.5 -21.5t-108 -59t-84 -88.5t-53.5 -111h430l-29 -28h-408q-8 -43 -8 -78q0 -42 7 -74h277l-29 -28h-241q17 -60 52 -112.5t84 -90.5t109 -60t128 -22q73 0 140.5 28t118.5 79l23 -22q-57 -54 -130 -84t-152 -30 q-73 0 -139.5 23.5t-120.5 65.5t-92 99.5t-55 125.5h-65l27 28h32q-7 32 -7 74q0 35 8 78h-60l27 28h39q18 66 56.5 122.5t91.5 98t119 64.5t139 23q85 0 155.5 -29.5t127.5 -83.5z" />
<glyph unicode="&#x2122;" horiz-adv-x="923" d="M833 401h-25v370l-184 -257l-183 257v-370h-25v399h30l178 -248l179 248h30v-399zM373 779h-149v-378h-25v378h-149v21h323v-21z" />
<glyph unicode="&#x25fc;" horiz-adv-x="635" d="M0 635h635v-635h-635v635z" />
<glyph unicode="&#xfb01;" horiz-adv-x="619" d="M532 0h-30v610h-55v23h85v-633zM365 830l-22 -19q-39 24 -83 24q-29 0 -54.5 -10.5t-44 -29.5t-29.5 -44t-11 -53v-65h222v-22h-222v-611h-30v611h-71v22h71v65q0 34 13.5 64.5t36.5 53t53.5 35.5t65.5 13q59 0 105 -34zM536 827q0 -16 -11 -27t-27 -11t-27 11t-11 27 t11 27t27 11t27 -11t11 -27z" />
<glyph unicode="&#xfb02;" horiz-adv-x="731" d="M751 17q-43 -34 -103 -34q-35 0 -65 13.5t-52 36t-35 53t-13 63.5v682h-55v24h84v-704q0 -26 9.5 -51t27 -45t42.5 -32t57 -12q25 0 44.5 7t36.5 19zM360 830l-21 -19q-39 24 -82 24q-29 0 -54 -10.5t-43.5 -29.5t-29.5 -44t-11 -53v-71h219v-23h-219v-603h-29v603h-70 v23h70v71q0 34 13 64.5t36 53t53 35.5t65 13q57 0 103 -34z" />
</font>
</defs>
</svg>
